<svg width="689" height="244" viewBox="0 0 689 244" fill="none" xmlns="http://www.w3.org/2000/svg">
<g id="Group 1">
<g id="mac">
<g id="Group">
<path id="Vector" d="M484.713 19.5747C484.713 9.00985 475.691 0.414673 464.601 0.414673H201.147C190.057 0.414139 181.035 9.00985 181.035 19.5747V192.831C181.035 203.395 190.057 211.99 201.148 211.99H310.995L302.975 233.33H287.462C284.14 233.33 281.447 235.719 281.447 238.665C281.447 241.611 284.14 244 287.462 244H307.311H358.438H378.287C381.609 244 384.302 241.611 384.302 238.665C384.302 235.719 381.609 233.33 378.287 233.33H362.773L354.754 211.99H464.601C475.692 211.99 484.714 203.395 484.714 192.831V19.5747H484.713ZM193.065 19.5747C193.065 14.8933 196.691 11.0846 201.148 11.0846H464.601C469.058 11.0846 472.684 14.8933 472.684 19.5747V147.126H193.065V19.5747ZM350.092 233.33H315.656L323.676 211.99H342.072L350.092 233.33ZM472.683 192.83C472.683 197.511 469.058 201.32 464.601 201.32H346.407H319.34H201.147C196.691 201.32 193.064 197.511 193.064 192.83V157.796H472.683V192.83H472.683Z" fill="#7510F7"/>
<path id="Vector_2" d="M332.874 194.294C342.208 194.294 349.8 187.56 349.8 179.281C349.8 171.003 342.208 164.269 332.874 164.269C323.541 164.269 315.948 171.003 315.948 179.281C315.948 187.56 323.541 194.294 332.874 194.294ZM332.874 174.939C335.574 174.939 337.771 176.887 337.771 179.281C337.771 181.676 335.575 183.624 332.874 183.624C330.174 183.624 327.978 181.676 327.978 179.281C327.978 176.887 330.174 174.939 332.874 174.939Z" fill="#7510F7"/>
</g>
</g>
<g id="code-sign">
<circle id="Ellipse 1" cx="160.121" cy="93.7051" r="41.7119" fill="white" stroke="#7510F7" stroke-width="9"/>
<g id="code-sign_2">
<path id="Vector_3" d="M176.392 105.806C175.526 105.806 174.66 105.52 173.949 104.93C172.377 103.623 172.192 101.333 173.543 99.8077L178.955 93.7029L173.538 87.5932C172.187 86.0731 172.372 83.7783 173.944 82.4712C175.526 81.1641 177.894 81.3432 179.24 82.8633L186.75 91.3355C187.956 92.6959 187.956 94.7002 186.75 96.0654L179.24 104.538C178.5 105.375 177.448 105.806 176.392 105.806Z" fill="#7510F7"/>
<path id="Vector_4" d="M143.851 105.806C142.795 105.806 141.743 105.375 140.997 104.538L133.488 96.0654C132.281 94.705 132.281 92.7007 133.488 91.3355L140.997 82.8633C142.349 81.3432 144.717 81.1592 146.294 82.4712C147.866 83.7783 148.051 86.0682 146.7 87.5932L141.288 93.7029L146.705 99.8125C148.056 101.333 147.871 103.627 146.299 104.935C145.588 105.516 144.717 105.806 143.851 105.806Z" fill="#7510F7"/>
<path id="Vector_5" d="M155.526 112.976C153.503 112.526 152.247 110.575 152.707 108.624L160.217 77.1555C160.682 75.2045 162.7 73.999 164.717 74.4299C166.74 74.8801 167.996 76.8311 167.536 78.7821L160.026 110.25C159.571 112.172 157.593 113.426 155.526 112.976Z" fill="#7510F7"/>
</g>
</g>
<g id="ipad">
<path id="Vector 7" d="M226.27 127.614H148.727V240.946H226.27V127.614Z" fill="white" stroke="black"/>
<g id="Group_2">
<path id="Vector_6" d="M222.456 122.207H152.854C149.233 122.207 146.287 125.505 146.287 129.557V236.859C146.287 240.911 149.233 244.209 152.854 244.209H222.456C226.076 244.209 229.022 240.911 229.022 236.859V129.557C229.022 125.503 226.076 122.207 222.456 122.207ZM187.655 126.433C188.198 126.433 188.64 126.928 188.64 127.536C188.64 128.144 188.198 128.637 187.655 128.637C187.111 128.637 186.67 128.143 186.67 127.534C186.67 126.926 187.111 126.433 187.655 126.433ZM187.655 240.164C186.567 240.164 185.685 239.178 185.685 237.959C185.685 236.74 186.567 235.753 187.655 235.753C188.743 235.753 189.625 236.74 189.625 237.959C189.625 239.178 188.743 240.164 187.655 240.164ZM223.77 233.365H151.54V133.047H223.77V233.365Z" fill="#7510F7"/>
</g>
</g>
<g id="macbook">
<path id="Vector 2" d="M428.297 94.0684L466.964 94.0684L540.716 94.0683L591.017 93.8195C603.764 93.7564 614.131 104.072 614.131 116.819V222.576H616.19C621.712 222.576 626.19 227.053 626.19 232.576V234C626.19 239.523 621.713 244 616.19 244H403.633C398.11 244 393.633 239.523 393.633 234V232.023C393.633 226.5 398.11 222.023 403.633 222.023H405.297V117.068C405.297 104.366 415.594 94.0684 428.297 94.0684Z" fill="white"/>
<g id="macbook_2">
<g id="Group_3">
<path id="Vector_7" d="M619.632 222.405H614.14V108.567C614.14 100.571 607.096 94.0684 598.437 94.0684H421.295C412.637 94.0684 405.593 100.571 405.593 108.567V222.405H400.101C396.741 222.405 394.007 224.929 394.007 228.031V238.17C394.007 241.271 396.741 243.795 400.101 243.795H619.632C622.992 243.795 625.726 241.271 625.726 238.17V228.031C625.726 224.929 622.992 222.405 619.632 222.405ZM413.317 108.567C413.317 104.503 416.897 101.198 421.295 101.198H598.434C602.836 101.198 606.416 104.503 606.416 108.567V222.405H529.96L529.045 224.769C528.809 225.368 528.165 225.97 527.245 225.97H496.349C495.43 225.97 494.785 225.368 494.55 224.769L493.634 222.405H413.317V108.567ZM618.002 236.665H401.731V229.535H405.593H488.66C490.452 231.735 493.287 233.1 496.349 233.1H527.245C530.308 233.1 533.143 231.735 534.935 229.535H614.14H618.002V236.665Z" fill="#7510F7"/>
<path id="Vector_8" d="M602.554 104.763H417.179V218.841H602.554V104.763ZM594.83 211.711H424.902V111.893H594.83V211.711Z" fill="#7510F7"/>
</g>
</g>
</g>
<g id="iphone">
<path id="Vector 4" d="M155.786 162.882H125.783C121.365 162.882 117.783 166.464 117.783 170.882V229.601C117.783 236.78 123.604 242.601 130.783 242.601H155.786C158.548 242.601 160.786 240.362 160.786 237.601V167.882C160.786 165.121 158.548 162.882 155.786 162.882Z" fill="white"/>
<path id="Vector_9" d="M153.83 161.802H126.362C121.546 161.802 117.627 165.764 117.627 170.635V235.168C117.627 240.036 121.546 244 126.362 244H153.829C158.645 244 162.566 240.036 162.566 235.168V170.635C162.567 165.764 158.647 161.802 153.83 161.802ZM159.679 235.168C159.679 238.414 157.056 241.056 153.83 241.056H126.362C123.138 241.056 120.515 238.414 120.515 235.168V170.635H120.516C120.516 167.388 123.139 164.747 126.363 164.747H153.83C157.054 164.747 159.679 167.388 159.679 170.635C159.68 170.635 159.68 235.168 159.679 235.168ZM156.709 170.452H123.488C123.088 170.452 122.766 170.78 122.766 171.187V228.378C122.766 228.783 123.088 229.115 123.488 229.115H156.709C157.108 229.115 157.432 228.785 157.432 228.378V171.187C157.431 170.78 157.108 170.452 156.709 170.452ZM155.987 227.641H124.208V171.923H155.986C155.986 171.923 155.986 227.641 155.987 227.641ZM140.098 230.341C137.664 230.341 135.683 232.359 135.683 234.839C135.683 237.32 137.664 239.337 140.098 239.337C142.532 239.337 144.51 237.318 144.51 234.839C144.51 232.359 142.532 230.341 140.098 230.341ZM140.098 237.865C138.46 237.865 137.128 236.507 137.128 234.839C137.128 233.171 138.46 231.812 140.098 231.812C141.735 231.812 143.067 233.171 143.067 234.839C143.067 236.507 141.735 237.865 140.098 237.865ZM135.321 167.56C135.321 167.26 135.608 167.018 135.963 167.018H144.229C144.584 167.018 144.87 167.26 144.87 167.56C144.87 167.86 144.585 168.103 144.231 168.103H135.964C135.611 168.103 135.322 167.86 135.321 167.56Z" fill="#7510F7"/>
</g>
<g id="web-window">
<path id="Vector 5" d="M668.572 54.2789H526.911C517.523 54.2789 509.911 61.8901 509.911 71.2789V146.252C509.911 155.088 517.075 162.252 525.911 162.252H671.572C680.408 162.252 687.572 155.088 687.572 146.252V73.2789C687.572 62.7855 679.065 54.2789 668.572 54.2789Z" fill="white"/>
<g id="Group_4">
<path id="Vector_10" d="M522.903 66.0417C523.595 66.0417 524.277 65.8184 524.765 65.4277C525.257 65.0398 525.538 64.4985 525.538 63.9487C525.538 63.399 525.257 62.8576 524.765 62.4698C524.277 62.0791 523.598 61.8558 522.903 61.8558C522.207 61.8558 521.529 62.0791 521.04 62.4698C520.548 62.8576 520.267 63.399 520.267 63.9487C520.267 64.4985 520.548 65.0398 521.04 65.4277C521.529 65.8184 522.21 66.0417 522.903 66.0417Z" fill="#7510F7"/>
<path id="Vector_11" d="M531.336 66.0417C532.032 66.0417 532.71 65.8184 533.199 65.4277C533.691 65.0398 533.972 64.4985 533.972 63.9487C533.972 63.399 533.691 62.8576 533.199 62.4698C532.71 62.0791 532.029 61.8558 531.336 61.8558C530.644 61.8558 529.962 62.0791 529.474 62.4698C528.982 62.8576 528.701 63.399 528.701 63.9487C528.701 64.4985 528.982 65.0398 529.474 65.4277C529.962 65.8184 530.644 66.0417 531.336 66.0417Z" fill="#7510F7"/>
<path id="Vector_12" d="M539.77 66.0417C540.462 66.0417 541.144 65.8184 541.632 65.4277C542.124 65.0398 542.405 64.4985 542.405 63.9487C542.405 63.399 542.124 62.8576 541.632 62.4698C541.144 62.0791 540.462 61.8558 539.77 61.8558C539.078 61.8558 538.396 62.0791 537.907 62.4698C537.415 62.8576 537.134 63.399 537.134 63.9487C537.134 64.4985 537.415 65.0398 537.907 65.4277C538.396 65.8184 539.078 66.0417 539.77 66.0417Z" fill="#7510F7"/>
<path id="Vector_13" d="M551.015 66.0417H657.841C659.296 66.0417 660.476 65.1046 660.476 63.9487C660.476 62.7929 659.296 61.8558 657.841 61.8558H551.015C549.559 61.8558 548.379 62.7929 548.379 63.9487C548.379 65.1046 549.559 66.0417 551.015 66.0417Z" fill="#7510F7"/>
<path id="Vector_14" d="M669.086 66.0417H674.708C676.164 66.0417 677.344 65.1046 677.344 63.9487C677.344 62.7929 676.164 61.8558 674.708 61.8558H669.086C667.63 61.8558 666.45 62.7929 666.45 63.9487C666.45 65.1046 667.63 66.0417 669.086 66.0417Z" fill="#7510F7"/>
<path id="Vector_15" d="M663.463 84.1802H612.861C608.308 84.1802 604.604 87.122 604.604 90.738V90.8775H601.617C597.063 90.8775 593.359 93.8193 593.359 97.4353V115.434H587.385V108.597C587.385 104.981 583.68 102.04 579.127 102.04H534.147C529.594 102.04 525.89 104.981 525.89 108.597V126.457C525.89 130.073 529.594 133.015 534.147 133.015H579.127C583.68 133.015 587.385 130.073 587.385 126.457V119.62H593.359V137.619C593.359 141.235 597.063 144.177 601.617 144.177H604.604V144.316C604.604 147.932 608.308 150.874 612.861 150.874H663.463C668.017 150.874 671.721 147.932 671.721 144.316V139.852C671.721 136.236 668.017 133.294 663.463 133.294H612.861C608.308 133.294 604.604 136.236 604.604 139.852V139.991H601.617C599.97 139.991 598.63 138.927 598.63 137.619V119.62H604.604V119.76C604.604 123.376 608.308 126.317 612.861 126.317H663.463C668.017 126.317 671.721 123.376 671.721 119.76V115.295C671.721 111.679 668.017 108.737 663.463 108.737H612.861C608.308 108.737 604.604 111.679 604.604 115.295V115.434H598.63V97.4353C598.63 96.1273 599.97 95.0633 601.617 95.0633H604.604V95.2028C604.604 98.8188 608.308 101.761 612.861 101.761H663.463C668.017 101.761 671.721 98.8188 671.721 95.2028V90.738C671.721 87.122 668.017 84.1802 663.463 84.1802ZM582.114 126.457C582.114 127.765 580.774 128.829 579.127 128.829H534.147C532.5 128.829 531.161 127.765 531.161 126.457V108.597C531.161 107.29 532.5 106.225 534.147 106.225H579.127C580.774 106.225 582.114 107.29 582.114 108.597V126.457ZM609.875 139.852C609.875 138.544 611.214 137.48 612.861 137.48H663.463C665.11 137.48 666.45 138.544 666.45 139.852V144.316C666.45 145.624 665.11 146.688 663.463 146.688H612.861C611.214 146.688 609.875 145.624 609.875 144.316V139.852ZM609.875 115.295C609.875 113.987 611.214 112.923 612.861 112.923H663.463C665.11 112.923 666.45 113.987 666.45 115.295V119.76C666.45 121.068 665.11 122.132 663.463 122.132H612.861C611.214 122.132 609.875 121.068 609.875 119.76V115.295ZM666.45 95.2028C666.45 96.5108 665.11 97.5748 663.463 97.5748H612.861C611.214 97.5748 609.875 96.5108 609.875 95.2028V90.738C609.875 89.43 611.214 88.366 612.861 88.366H663.463C665.11 88.366 666.45 89.43 666.45 90.738V95.2028Z" fill="#7510F7"/>
<path id="Vector_16" d="M674.708 52.9261H522.903C515.249 52.9261 509.022 57.8709 509.022 63.9487V153.246C509.022 159.324 515.249 164.269 522.903 164.269H674.708C682.362 164.269 688.589 159.324 688.589 153.246V63.9487C688.589 57.8709 682.362 52.9261 674.708 52.9261ZM522.903 57.1119H674.708C679.455 57.1119 683.318 60.179 683.318 63.9487V70.7856H514.293V63.9487C514.293 60.179 518.156 57.1119 522.903 57.1119ZM674.708 160.083H522.903C518.156 160.083 514.293 157.016 514.293 153.246V74.9714H683.318V153.246C683.318 157.016 679.455 160.083 674.708 160.083Z" fill="#7510F7"/>
</g>
</g>
<g id="coffee">
<path id="Vector 6" d="M649.841 235.744H636.537L638.398 239.001L644.538 241.792H661.006H669.565L675.427 239.001L677.846 235.744L665.379 234.814L667.053 233.232L670.868 230.255L674.403 226.254L675.427 219.742H679.706L684.544 218.439L686.777 216.206L686.126 212.113L683.149 209.043H675.427V207.554L673.659 205.972H668.728V189.319H645.469V205.972H644.073L641.003 206.531L638.863 207.554V221.044L641.003 228.301L648.446 233.232L649.841 235.744Z" fill="white"/>
<g id="Group_5">
<path id="Vector_17" d="M654.885 199.27L655.501 200.332C655.823 200.887 656.472 201.208 657.145 201.208C657.422 201.208 657.703 201.154 657.967 201.04C658.874 200.647 659.241 199.694 658.786 198.911L658.17 197.85C657.889 197.364 657.998 196.78 658.443 196.396C660.009 195.045 660.394 192.989 659.403 191.28L658.786 190.218C658.332 189.435 657.228 189.118 656.321 189.51C655.413 189.903 655.046 190.856 655.501 191.639L656.117 192.7C656.399 193.186 656.289 193.77 655.844 194.154C654.279 195.505 653.893 197.561 654.885 199.27Z" fill="#7510F7"/>
<path id="Vector_18" d="M645.491 199.27L646.108 200.332C646.43 200.887 647.078 201.208 647.752 201.208C648.028 201.208 648.309 201.154 648.573 201.04C649.481 200.647 649.848 199.694 649.393 198.911L648.777 197.85C648.495 197.364 648.605 196.78 649.05 196.396C650.615 195.045 651.001 192.989 650.009 191.28L649.393 190.218C648.939 189.435 647.835 189.118 646.927 189.51C646.02 189.903 645.653 190.856 646.108 191.639L646.724 192.7C647.006 193.186 646.896 193.77 646.451 194.154C644.885 195.505 644.5 197.561 645.491 199.27Z" fill="#7510F7"/>
<path id="Vector_19" d="M664.278 199.27L664.894 200.332C665.216 200.887 665.865 201.208 666.538 201.208C666.815 201.208 667.096 201.154 667.36 201.04C668.267 200.647 668.634 199.694 668.18 198.911L667.564 197.85C667.282 197.364 667.391 196.78 667.836 196.396C669.402 195.045 669.788 192.989 668.796 191.28L668.18 190.218C667.725 189.435 666.622 189.118 665.714 189.51C664.807 189.903 664.44 190.856 664.894 191.639L665.51 192.7C665.792 193.186 665.682 193.77 665.238 194.154C663.672 195.505 663.286 197.561 664.278 199.27Z" fill="#7510F7"/>
<path id="Vector_20" d="M680.897 207.813H677.267C676.497 205.821 674.315 204.381 671.751 204.381H642.537C639.331 204.381 636.723 206.632 636.723 209.399V219.506C636.723 225.481 640.185 230.771 645.469 233.96H635.938C635.301 233.96 634.71 234.245 634.375 234.712C634.04 235.18 634.01 235.764 634.294 236.255C635.552 238.427 637.482 240.249 639.874 241.525C642.266 242.801 645.017 243.476 647.83 243.476H666.457C669.27 243.476 672.021 242.801 674.413 241.525C676.806 240.249 678.735 238.427 679.993 236.255C680.277 235.764 680.247 235.18 679.912 234.712C679.577 234.245 678.986 233.96 678.349 233.96H668.818C673.63 231.056 676.931 226.41 677.483 221.092H680.897C685.138 221.092 688.589 218.113 688.589 214.452C688.589 210.792 685.139 207.813 680.897 207.813ZM674.875 237.132C672.743 239.133 669.724 240.304 666.457 240.304H647.83C644.564 240.304 641.544 239.133 639.412 237.132H674.875ZM657.144 233.96C647.91 233.96 640.398 227.476 640.398 219.506V209.4C640.398 208.381 641.357 207.553 642.537 207.553H671.751C672.93 207.553 673.89 208.381 673.89 209.4V219.506C673.89 227.476 666.378 233.96 657.144 233.96ZM680.897 217.92H677.565V210.985H680.897C683.112 210.985 684.914 212.541 684.914 214.453C684.914 216.364 683.112 217.92 680.897 217.92Z" fill="#7510F7"/>
</g>
</g>
</g>
</svg>
