<svg width="689" height="244" viewBox="0 0 689 244" fill="none" xmlns="http://www.w3.org/2000/svg">
<g id="Group 1">
<g id="mac">
<g id="Group">
<path id="Vector" d="M483.213 19.5747V21.0747H483.214V192.831C483.214 202.499 474.933 210.49 464.601 210.49H354.754H352.588L353.35 212.518L361.369 233.858L361.735 234.83H362.773H378.287C380.954 234.83 382.802 236.712 382.802 238.665C382.802 240.618 380.954 242.5 378.287 242.5H358.438H307.311H287.462C284.795 242.5 282.947 240.618 282.947 238.665C282.947 236.712 284.795 234.83 287.462 234.83H302.975H304.014L304.38 233.858L312.399 212.518L313.161 210.49H310.995H201.148C190.816 210.49 182.535 202.499 182.535 192.831V19.5747C182.535 9.90594 190.816 1.91418 201.147 1.91467H201.147H464.601C474.932 1.91467 483.213 9.90603 483.213 19.5747ZM472.684 148.626H474.184V147.126V19.5747C474.184 14.1351 469.955 9.58462 464.601 9.58462H201.148C195.794 9.58462 191.565 14.1352 191.565 19.5747V147.126V148.626H193.065H472.684ZM350.092 234.83H352.258L351.496 232.802L343.476 211.462L343.111 210.49H342.072H323.676H322.637L322.272 211.462L314.251 232.802L313.489 234.83H315.656H350.092ZM474.183 192.83V191.33H474.183V157.796V156.296H472.683H193.064H191.564V157.796V192.83C191.564 198.269 195.794 202.82 201.147 202.82H319.34H346.407H464.601C469.955 202.82 474.183 198.269 474.183 192.83Z" stroke="#7510F7" stroke-width="3"/>
<path id="Vector_2" d="M348.8 179.281C348.8 186.898 341.772 193.294 332.874 193.294C323.977 193.294 316.948 186.898 316.948 179.281C316.948 171.665 323.977 165.269 332.874 165.269C341.772 165.269 348.8 171.665 348.8 179.281ZM338.771 179.281C338.771 176.225 336.01 173.939 332.874 173.939C329.738 173.939 326.978 176.225 326.978 179.281C326.978 182.338 329.738 184.624 332.874 184.624C336.011 184.624 338.771 182.338 338.771 179.281Z" stroke="#7510F7" stroke-width="2"/>
</g>
</g>
<g id="code-sign">
<circle id="Ellipse 1" cx="160.121" cy="93.7051" r="45.2119" fill="white" stroke="#7510F7" stroke-width="2"/>
<g id="code-sign_2">
<path id="Vector_3" d="M180.291 93.7028L179.703 94.3662L174.292 100.471C174.292 100.471 174.292 100.471 174.292 100.471C173.319 101.568 173.445 103.21 174.588 104.161L180.291 93.7028ZM180.291 93.7028L179.703 93.0395M180.291 93.7028L179.703 93.0395M179.703 93.0395L174.287 86.9298L174.286 86.9287M179.703 93.0395L174.286 86.9287M174.286 86.9287C173.315 85.8376 173.439 84.1923 174.582 83.2411C175.753 82.2745 177.507 82.4145 178.492 83.5264L178.492 83.5266M174.286 86.9287L178.492 83.5266M178.492 83.5266L186.002 91.9988L186.002 91.999M178.492 83.5266L186.002 91.999M186.002 91.999C186.872 92.98 186.873 94.4152 186.001 95.4029C186.001 95.403 186.001 95.4031 186.001 95.4032L178.492 103.874L178.491 103.875M186.002 91.999L178.491 103.875M178.491 103.875C177.952 104.485 177.18 104.806 176.392 104.806C175.746 104.806 175.11 104.594 174.588 104.161L178.491 103.875Z" stroke="#7510F7" stroke-width="2"/>
<path id="Vector_4" d="M134.236 95.4021L134.236 95.4019C133.366 94.421 133.364 92.9861 134.237 91.9984C134.237 91.9982 134.237 91.9979 134.237 91.9977L141.745 83.5278C141.745 83.5276 141.745 83.5274 141.745 83.5272C142.738 82.4108 144.492 82.2731 145.654 83.2399L145.655 83.2401C146.798 84.1906 146.924 85.8326 145.951 86.9299L145.951 86.9302L140.539 93.0398L139.952 93.7032L140.539 94.3663L145.956 100.476L145.957 100.477C146.927 101.568 146.804 103.212 145.663 104.163C145.138 104.591 144.493 104.806 143.851 104.806C143.064 104.806 142.29 104.485 141.745 103.873C141.745 103.873 141.744 103.873 141.744 103.873L134.236 95.4021Z" stroke="#7510F7" stroke-width="2"/>
<path id="Vector_5" d="M159.053 110.02C158.728 111.391 157.295 112.337 155.741 111.999C154.238 111.663 153.354 110.236 153.68 108.854C153.68 108.854 153.68 108.854 153.68 108.853L161.189 77.3876C161.52 76.0026 162.982 75.084 164.504 75.4069C166.006 75.7435 166.888 77.1701 166.563 78.5516C166.563 78.5518 166.563 78.5521 166.562 78.5524L159.054 110.018L159.053 110.02Z" stroke="#7510F7" stroke-width="2"/>
</g>
</g>
<g id="ipad">
<path id="Vector 7" d="M226.27 127.614H148.727V240.946H226.27V127.614Z" fill="white" stroke="black"/>
<g id="Group_2">
<path id="Vector_6" d="M222.456 122.207H152.854C149.233 122.207 146.287 125.505 146.287 129.557V236.859C146.287 240.911 149.233 244.209 152.854 244.209H222.456C226.076 244.209 229.022 240.911 229.022 236.859V129.557C229.022 125.503 226.076 122.207 222.456 122.207ZM187.655 126.433C188.198 126.433 188.64 126.928 188.64 127.536C188.64 128.144 188.198 128.637 187.655 128.637C187.111 128.637 186.67 128.143 186.67 127.534C186.67 126.926 187.111 126.433 187.655 126.433ZM187.655 240.164C186.567 240.164 185.685 239.178 185.685 237.959C185.685 236.74 186.567 235.753 187.655 235.753C188.743 235.753 189.625 236.74 189.625 237.959C189.625 239.178 188.743 240.164 187.655 240.164ZM223.77 233.365H151.54V133.047H223.77V233.365Z" fill="#7510F7"/>
</g>
</g>
<g id="macbook">
<path id="Vector 2" d="M428.297 94.0684L466.964 94.0684L540.716 94.0683L591.017 93.8195C603.764 93.7564 614.131 104.072 614.131 116.819V222.576H616.19C621.712 222.576 626.19 227.053 626.19 232.576V234C626.19 239.523 621.713 244 616.19 244H403.633C398.11 244 393.633 239.523 393.633 234V232.023C393.633 226.5 398.11 222.023 403.633 222.023H405.297V117.068C405.297 104.366 415.594 94.0684 428.297 94.0684Z" fill="white"/>
<g id="macbook_2">
<g id="Group_3">
<path id="Vector_7" d="M613.14 222.405V223.405H614.14H619.632C622.517 223.405 624.726 225.556 624.726 228.031V238.17C624.726 240.645 622.517 242.795 619.632 242.795H400.101C397.216 242.795 395.007 240.645 395.007 238.17V228.031C395.007 225.556 397.216 223.405 400.101 223.405H405.593H406.593V222.405V108.567C406.593 101.197 413.112 95.0684 421.295 95.0684H598.437C606.62 95.0684 613.14 101.197 613.14 108.567V222.405ZM606.416 223.405H607.416V222.405V108.567C607.416 103.877 603.312 100.198 598.434 100.198H421.295C416.421 100.198 412.317 103.877 412.317 108.567V222.405V223.405H413.317H492.949L493.617 225.13L493.619 225.135C493.982 226.058 494.96 226.97 496.349 226.97H527.245C528.635 226.97 529.612 226.058 529.976 225.135L529.978 225.13L530.645 223.405H606.416ZM618.002 237.665H619.002V236.665V229.535V228.535H618.002H614.14H534.935H534.459L534.159 228.904C532.562 230.864 530.015 232.1 527.245 232.1H496.349C493.579 232.1 491.032 230.864 489.435 228.904L489.135 228.535H488.66H405.593H401.731H400.731V229.535V236.665V237.665H401.731H618.002Z" stroke="#7510F7" stroke-width="2"/>
<path id="Vector_8" d="M603.554 104.763V103.763H602.554H422.179C418.865 103.763 416.179 106.449 416.179 109.763V218.841V219.841H417.179H602.554H603.554V218.841V104.763ZM593.83 210.711H425.902V112.893H593.83V210.711Z" stroke="#7510F7" stroke-width="2"/>
</g>
</g>
</g>
<g id="web-window">
<path id="Vector 5" d="M668.572 54.2789H526.911C517.523 54.2789 509.911 61.8901 509.911 71.2789V146.252C509.911 155.088 517.075 162.252 525.911 162.252H671.572C680.408 162.252 687.572 155.088 687.572 146.252V73.2789C687.572 62.7855 679.065 54.2789 668.572 54.2789Z" fill="white"/>
<g id="Group_4">
<path id="Vector_9" d="M522.903 66.0417C523.595 66.0417 524.277 65.8184 524.765 65.4277C525.257 65.0398 525.538 64.4985 525.538 63.9487C525.538 63.399 525.257 62.8576 524.765 62.4698C524.277 62.0791 523.598 61.8558 522.903 61.8558C522.207 61.8558 521.529 62.0791 521.04 62.4698C520.548 62.8576 520.267 63.399 520.267 63.9487C520.267 64.4985 520.548 65.0398 521.04 65.4277C521.529 65.8184 522.21 66.0417 522.903 66.0417Z" fill="#7510F7"/>
<path id="Vector_10" d="M531.336 66.0417C532.032 66.0417 532.71 65.8184 533.199 65.4277C533.691 65.0398 533.972 64.4985 533.972 63.9487C533.972 63.399 533.691 62.8576 533.199 62.4698C532.71 62.0791 532.029 61.8558 531.336 61.8558C530.644 61.8558 529.962 62.0791 529.474 62.4698C528.982 62.8576 528.701 63.399 528.701 63.9487C528.701 64.4985 528.982 65.0398 529.474 65.4277C529.962 65.8184 530.644 66.0417 531.336 66.0417Z" fill="#7510F7"/>
<path id="Vector_11" d="M539.77 66.0417C540.462 66.0417 541.144 65.8184 541.632 65.4277C542.124 65.0398 542.405 64.4985 542.405 63.9487C542.405 63.399 542.124 62.8576 541.632 62.4698C541.144 62.0791 540.462 61.8558 539.77 61.8558C539.078 61.8558 538.396 62.0791 537.907 62.4698C537.415 62.8576 537.134 63.399 537.134 63.9487C537.134 64.4985 537.415 65.0398 537.907 65.4277C538.396 65.8184 539.078 66.0417 539.77 66.0417Z" fill="#7510F7"/>
<path id="Vector_12" d="M657.841 65.0417H551.015C549.884 65.0417 549.379 64.3496 549.379 63.9487C549.379 63.5479 549.884 62.8558 551.015 62.8558H657.841C658.971 62.8558 659.476 63.5479 659.476 63.9487C659.476 64.3496 658.971 65.0417 657.841 65.0417Z" stroke="#7510F7" stroke-width="2"/>
<path id="Vector_13" d="M674.708 65.0417H669.086C667.955 65.0417 667.45 64.3496 667.45 63.9487C667.45 63.5479 667.955 62.8558 669.086 62.8558H674.708C675.839 62.8558 676.344 63.5479 676.344 63.9487C676.344 64.3496 675.839 65.0417 674.708 65.0417Z" stroke="#7510F7" stroke-width="2"/>
<path id="Vector_14" d="M604.604 91.8775H605.604V90.8775V90.738C605.604 87.8769 608.633 85.1802 612.861 85.1802H663.463C667.692 85.1802 670.721 87.8769 670.721 90.738V95.2028C670.721 98.0638 667.692 100.761 663.463 100.761H612.861C608.633 100.761 605.604 98.0638 605.604 95.2028V95.0633V94.0633H604.604H601.617C599.645 94.0633 597.63 95.3724 597.63 97.4353V115.434V116.434H598.63H604.604H605.604V115.434V115.295C605.604 112.434 608.633 109.737 612.861 109.737H663.463C667.692 109.737 670.721 112.434 670.721 115.295V119.76C670.721 122.621 667.692 125.317 663.463 125.317H612.861C608.633 125.317 605.604 122.621 605.604 119.76V119.62V118.62H604.604H598.63H597.63V119.62V137.619C597.63 139.682 599.645 140.991 601.617 140.991H604.604H605.604V139.991V139.852C605.604 136.99 608.633 134.294 612.861 134.294H663.463C667.692 134.294 670.721 136.99 670.721 139.852V144.316C670.721 147.177 667.692 149.874 663.463 149.874H612.861C608.633 149.874 605.604 147.177 605.604 144.316V144.177V143.177H604.604H601.617C597.388 143.177 594.359 140.48 594.359 137.619V119.62V118.62H593.359H587.385H586.385V119.62V126.457C586.385 129.318 583.355 132.015 579.127 132.015H534.147C529.919 132.015 526.89 129.318 526.89 126.457V108.597C526.89 105.736 529.919 103.04 534.147 103.04H579.127C583.355 103.04 586.385 105.736 586.385 108.597V115.434V116.434H587.385H593.359H594.359V115.434V97.4353C594.359 94.5742 597.388 91.8775 601.617 91.8775H604.604ZM579.127 129.829C581.099 129.829 583.114 128.52 583.114 126.457V108.597C583.114 106.535 581.099 105.225 579.127 105.225H534.147C532.175 105.225 530.161 106.535 530.161 108.597V126.457C530.161 128.52 532.175 129.829 534.147 129.829H579.127ZM612.861 136.48C610.889 136.48 608.875 137.789 608.875 139.852V144.316C608.875 146.379 610.889 147.688 612.861 147.688H663.463C665.435 147.688 667.45 146.379 667.45 144.316V139.852C667.45 137.789 665.435 136.48 663.463 136.48H612.861ZM612.861 111.923C610.889 111.923 608.875 113.232 608.875 115.295V119.76C608.875 121.822 610.889 123.132 612.861 123.132H663.463C665.435 123.132 667.45 121.822 667.45 119.76V115.295C667.45 113.232 665.435 111.923 663.463 111.923H612.861ZM663.463 98.5748C665.435 98.5748 667.45 97.2657 667.45 95.2028V90.738C667.45 88.6751 665.435 87.366 663.463 87.366H612.861C610.889 87.366 608.875 88.6751 608.875 90.738V95.2028C608.875 97.2657 610.889 98.5748 612.861 98.5748H663.463Z" stroke="#7510F7" stroke-width="2"/>
<path id="Vector_15" d="M683.318 71.7856H684.318V70.7856V63.9487C684.318 59.424 679.78 56.1119 674.708 56.1119H522.903C517.83 56.1119 513.293 59.424 513.293 63.9487V70.7856V71.7856H514.293H683.318ZM514.293 73.9714H513.293V74.9714V153.246C513.293 157.771 517.83 161.083 522.903 161.083H674.708C679.78 161.083 684.318 157.771 684.318 153.246V74.9714V73.9714H683.318H514.293ZM522.903 53.9261H674.708C682.037 53.9261 687.589 58.6259 687.589 63.9487V153.246C687.589 158.569 682.037 163.269 674.708 163.269H522.903C515.574 163.269 510.022 158.569 510.022 153.246V63.9487C510.022 58.6259 515.574 53.9261 522.903 53.9261Z" stroke="#7510F7" stroke-width="2"/>
</g>
</g>
<g id="iphone">
<path id="Vector 4" d="M155.786 162.882H125.783C121.365 162.882 117.783 166.464 117.783 170.882V229.601C117.783 236.78 123.604 242.601 130.783 242.601H155.786C158.548 242.601 160.786 240.362 160.786 237.601V167.882C160.786 165.121 158.548 162.882 155.786 162.882Z" fill="white"/>
<path id="Vector_16" d="M153.83 161.802H126.362C121.546 161.802 117.627 165.764 117.627 170.635V235.168C117.627 240.036 121.546 244 126.362 244H153.829C158.645 244 162.566 240.036 162.566 235.168V170.635C162.567 165.764 158.647 161.802 153.83 161.802ZM159.679 235.168C159.679 238.414 157.056 241.056 153.83 241.056H126.362C123.138 241.056 120.515 238.414 120.515 235.168V170.635H120.516C120.516 167.388 123.139 164.747 126.363 164.747H153.83C157.054 164.747 159.679 167.388 159.679 170.635C159.68 170.635 159.68 235.168 159.679 235.168ZM156.709 170.452H123.488C123.088 170.452 122.766 170.78 122.766 171.187V228.378C122.766 228.784 123.088 229.115 123.488 229.115H156.709C157.108 229.115 157.432 228.785 157.432 228.378V171.187C157.431 170.78 157.108 170.452 156.709 170.452ZM155.987 227.641H124.208V171.923H155.986C155.986 171.923 155.986 227.641 155.987 227.641ZM140.098 230.341C137.664 230.341 135.683 232.359 135.683 234.839C135.683 237.32 137.664 239.337 140.098 239.337C142.532 239.337 144.51 237.318 144.51 234.839C144.51 232.359 142.532 230.341 140.098 230.341ZM140.098 237.865C138.46 237.865 137.128 236.507 137.128 234.839C137.128 233.171 138.46 231.812 140.098 231.812C141.735 231.812 143.067 233.171 143.067 234.839C143.067 236.507 141.735 237.865 140.098 237.865ZM135.321 167.56C135.321 167.26 135.608 167.018 135.963 167.018H144.229C144.584 167.018 144.87 167.26 144.87 167.56C144.87 167.86 144.585 168.103 144.231 168.103H135.964C135.611 168.103 135.322 167.86 135.321 167.56Z" fill="#7510F7"/>
</g>
<g id="coffee">
<path id="Vector 6" d="M649.841 235.744H636.537L638.398 239.001L644.538 241.792H661.006H669.565L675.427 239.001L677.846 235.744L665.379 234.814L667.053 233.232L670.868 230.255L674.403 226.254L675.427 219.742H679.706L684.544 218.439L686.777 216.206L686.126 212.113L683.149 209.043H675.427V207.554L673.659 205.972H668.728V189.319H645.469V205.972H644.073L641.003 206.531L638.863 207.554V221.044L641.003 228.301L648.446 233.232L649.841 235.744Z" fill="white"/>
<g id="Group_5">
<path id="Vector_17" d="M656.02 200.031L656.02 200.031C656.216 200.369 656.646 200.608 657.145 200.608C657.344 200.608 657.543 200.569 657.728 200.489L657.728 200.489C658.362 200.215 658.512 199.635 658.267 199.213L658.267 199.212L657.651 198.151C657.651 198.151 657.651 198.151 657.651 198.151C657.215 197.399 657.403 196.502 658.051 195.942C659.413 194.766 659.721 193.023 658.884 191.581L656.02 200.031ZM656.02 200.031L655.404 198.969C655.404 198.969 655.404 198.969 655.404 198.969C654.567 197.527 654.874 195.784 656.236 194.608L656.237 194.608C656.884 194.049 657.072 193.151 656.636 192.399C656.636 192.399 656.636 192.399 656.636 192.399L656.02 191.338L656.02 191.338M656.02 200.031L656.02 191.338M656.02 191.338C655.775 190.915 655.926 190.335 656.559 190.061L656.02 191.338ZM658.268 190.519L658.884 191.581L656.559 190.061C657.226 189.773 657.986 190.034 658.268 190.519C658.268 190.519 658.268 190.519 658.268 190.519Z" stroke="#7510F7" stroke-width="1.2"/>
<path id="Vector_18" d="M646.627 200.031L646.627 200.031C646.823 200.369 647.253 200.608 647.752 200.608C647.951 200.608 648.15 200.569 648.335 200.489L646.627 200.031ZM646.627 200.031L646.01 198.969L645.522 199.253L646.01 198.969C645.173 197.527 645.481 195.784 646.843 194.608L646.843 194.608C647.491 194.048 647.679 193.151 647.243 192.399L647.243 192.399L646.627 191.338L646.627 191.338C646.382 190.915 646.532 190.335 647.166 190.061C647.833 189.773 648.593 190.034 648.874 190.519L648.874 190.519M646.627 200.031L648.874 190.519M648.874 199.213L648.874 199.212L648.258 198.151L648.258 198.151C647.822 197.399 648.01 196.502 648.658 195.942M648.874 199.213L648.658 195.942M648.874 199.213C649.119 199.635 648.968 200.215 648.335 200.489L648.874 199.213ZM648.658 195.942C650.02 194.766 650.328 193.023 649.49 191.581M648.658 195.942L649.49 191.581M648.874 190.519L649.49 191.581C649.49 191.581 649.49 191.581 649.49 191.581M648.874 190.519L649.49 191.581" stroke="#7510F7" stroke-width="1.2"/>
<path id="Vector_19" d="M665.413 191.338C665.168 190.915 665.319 190.335 665.952 190.061L665.413 191.338ZM666.029 192.399L665.413 191.338L665.952 190.061C666.62 189.773 667.38 190.035 667.661 190.519C667.661 190.519 667.661 190.519 667.661 190.519L668.277 191.581L668.277 191.581C669.114 193.023 668.807 194.766 667.444 195.942C666.796 196.502 666.608 197.399 667.045 198.151C667.045 198.151 667.045 198.151 667.045 198.151L667.661 199.212L667.661 199.212C667.906 199.635 667.755 200.215 667.122 200.489C666.937 200.569 666.737 200.608 666.538 200.608C666.039 200.608 665.61 200.369 665.413 200.031C665.413 200.031 665.413 200.031 665.413 200.031L664.797 198.969L664.288 199.265L664.797 198.969C663.96 197.527 664.267 195.784 665.63 194.608L665.63 194.608C666.278 194.048 666.466 193.151 666.029 192.399C666.029 192.399 666.029 192.399 666.029 192.399Z" stroke="#7510F7" stroke-width="1.2"/>
<path id="Vector_20" d="M676.708 208.03L676.856 208.413H677.267H680.897C684.893 208.413 687.989 211.203 687.989 214.452C687.989 217.702 684.893 220.492 680.897 220.492H677.483H676.942L676.886 221.03C676.356 226.132 673.185 230.624 668.508 233.447L666.663 234.56H668.818H678.349C678.817 234.56 679.216 234.77 679.424 235.062L679.424 235.062C679.624 235.341 679.638 235.67 679.473 235.955L679.473 235.955C678.276 238.021 676.433 239.768 674.131 240.996C671.829 242.224 669.175 242.876 666.457 242.876H647.83C645.112 242.876 642.458 242.224 640.156 240.996C637.854 239.768 636.011 238.021 634.814 235.955C634.649 235.67 634.663 235.341 634.863 235.062L634.863 235.062C635.072 234.77 635.47 234.56 635.938 234.56H645.469H647.624L645.779 233.447C640.643 230.346 637.323 225.235 637.323 219.506V209.399C637.323 207.043 639.576 204.981 642.537 204.981H671.751C674.103 204.981 676.039 206.301 676.708 208.03ZM675.286 237.57L676.391 236.532H674.875H639.412H637.896L639.001 237.57C641.254 239.683 644.423 240.904 647.83 240.904H666.457C669.864 240.904 673.034 239.683 675.286 237.57ZM676.965 217.92V218.52H677.565H680.897C683.358 218.52 685.514 216.776 685.514 214.453C685.514 212.13 683.358 210.385 680.897 210.385H677.565H676.965V210.985V217.92ZM639.798 219.506C639.798 227.887 647.664 234.56 657.144 234.56C666.623 234.56 674.49 227.887 674.49 219.506V209.4C674.49 207.97 673.176 206.953 671.751 206.953H642.537C641.112 206.953 639.798 207.97 639.798 209.4V219.506Z" stroke="#7510F7" stroke-width="1.2"/>
</g>
</g>
</g>
</svg>
