<svg width="853" height="246" viewBox="0 0 853 246" fill="none" xmlns="http://www.w3.org/2000/svg">
<path d="M183.296 161.251C201.133 167.69 220.812 158.451 227.251 140.614C233.69 122.777 224.451 103.098 206.614 96.6587C188.777 90.2198 169.098 99.4596 162.659 117.296C156.22 135.133 165.46 154.812 183.296 161.251Z" fill="white" stroke="#7510F7" stroke-width="3"/>
<path d="M211.431 134.901L209.859 135.758L204.223 138.829C204.223 138.83 204.223 138.83 204.223 138.83C203.829 139.044 203.687 139.517 203.93 139.931L211.431 134.901ZM211.431 134.901L210.768 133.238L211.431 134.901ZM211.431 134.901L210.768 133.238L211.431 134.901ZM210.768 133.238L208.392 127.269L208.392 127.266L210.768 133.238ZM210.768 133.238L208.392 127.266L210.768 133.238ZM208.392 127.266C208.227 126.857 208.416 126.4 208.869 126.234C209.374 126.055 209.939 126.324 210.123 126.786L208.392 127.266ZM208.392 127.266L210.123 126.786L208.392 127.266ZM210.123 126.786L213.417 135.061L213.417 135.063L210.123 126.786ZM210.123 126.786L213.417 135.063L210.123 126.786ZM213.417 135.063C213.566 135.44 213.425 135.843 213.061 136.042C213.06 136.042 213.06 136.043 213.06 136.043L205.242 140.305L205.241 140.305L213.417 135.063ZM213.417 135.063L205.241 140.305L213.417 135.063ZM205.241 140.305C205.008 140.433 204.72 140.454 204.448 140.356C204.226 140.276 204.047 140.131 203.931 139.932L205.241 140.305Z" fill="white" stroke="#7510F7" stroke-width="3"/>
<path d="M176.493 122.84L176.492 122.84C176.342 122.462 176.485 122.06 176.848 121.859C176.849 121.859 176.849 121.859 176.849 121.859L184.663 117.598C184.665 117.599 184.665 117.599 184.665 117.599C185.113 117.355 185.717 117.519 185.982 117.971C186.225 118.387 186.083 118.859 185.69 119.074L185.688 119.073L180.051 122.149L178.481 123.006L179.143 124.67L181.52 130.637L181.52 130.64C181.683 131.048 181.496 131.503 181.048 131.671C180.824 131.748 180.584 131.741 180.369 131.663C180.098 131.566 179.888 131.367 179.785 131.112C179.785 131.112 179.785 131.112 179.785 131.111L176.493 122.84Z" fill="white" stroke="#7510F7" stroke-width="3"/>
<path d="M201.135 117.842C201.356 117.504 201.919 117.317 202.429 117.629C202.894 117.929 202.953 118.456 202.737 118.787C202.737 118.788 202.737 118.788 202.737 118.788L188.776 140.065L188.775 140.068C188.55 140.412 187.996 140.598 187.484 140.279C187.018 139.98 186.958 139.452 187.174 139.119L187.175 139.118L201.135 117.842Z" stroke="#7510F7" stroke-width="3"/>
<path d="M520.678 19.66V21.16H520.679V192.916C520.679 202.585 512.398 210.575 502.066 210.575H392.219H390.053L390.815 212.603L398.834 233.943L399.2 234.915H400.238H415.752C418.419 234.915 420.267 236.797 420.267 238.75C420.267 240.704 418.419 242.585 415.752 242.585H395.903H344.776H324.927C322.26 242.585 320.412 240.704 320.412 238.75C320.412 236.797 322.26 234.915 324.927 234.915H340.44H341.479L341.845 233.943L349.864 212.603L350.626 210.575H348.46H238.613C228.281 210.575 220 202.585 220 192.916V19.66C220 9.99126 228.281 1.9995 238.612 2H502.066C512.397 2 520.678 9.99135 520.678 19.66ZM510.149 148.712H511.649V147.212V19.66C511.649 14.2204 507.42 9.66995 502.066 9.66995H238.613C233.259 9.66995 229.03 14.2205 229.03 19.66V147.212V148.712H230.53H510.149ZM387.557 234.915H389.723L388.961 232.888L380.941 211.548L380.576 210.575H379.537H361.141H360.102L359.737 211.548L351.716 232.888L350.954 234.915H353.121H387.557ZM511.648 192.915V191.415V157.881V156.381H510.148H230.529H229.029V157.881V192.915C229.029 198.355 233.259 202.905 238.612 202.905H356.805H383.872H502.066C507.42 202.905 511.648 198.354 511.648 192.915Z" fill="#7510F7" stroke="white" stroke-width="3"/>
<path d="M386.265 179.367C386.265 186.983 379.237 193.379 370.339 193.379C361.442 193.379 354.413 186.983 354.413 179.367C354.413 171.75 361.442 165.354 370.339 165.354C379.237 165.354 386.265 171.75 386.265 179.367ZM376.236 179.367C376.236 176.31 373.475 174.024 370.339 174.024C367.203 174.024 364.443 176.31 364.443 179.367C364.443 182.423 367.203 184.709 370.339 184.709C373.476 184.709 376.236 182.423 376.236 179.367Z" fill="#7510F7" stroke="white" stroke-width="2"/>
<path d="M568.933 130.621C597.892 121.923 614.318 91.3959 605.621 62.4362C596.923 33.4765 566.396 17.0507 537.436 25.7483C508.476 34.4458 492.051 64.973 500.748 93.9327C509.446 122.892 539.973 139.318 568.933 130.621Z" fill="white" stroke="#7510F7" stroke-width="3"/>
<path d="M579.932 70.1489L578.733 72.7397L574.434 82.0253C574.434 82.0273 574.434 82.0273 574.434 82.0273C574.133 82.6759 574.401 83.4161 575.105 83.7157L579.932 70.1489ZM579.932 70.1489L577.504 68.6476L579.932 70.1489ZM579.932 70.1489L577.504 68.6476L579.932 70.1489ZM577.504 68.6476L568.791 63.2612L568.788 63.2577L577.504 68.6476ZM577.504 68.6476L568.788 63.2577L577.504 68.6476ZM568.788 63.2577C568.189 62.8906 567.997 62.1254 568.419 61.4832C568.896 60.7727 569.874 60.582 570.549 60.9983L568.788 63.2577ZM568.788 63.2577L570.549 60.9983L568.788 63.2577ZM570.549 60.9983L582.629 68.4671L582.629 68.4691L570.549 60.9983ZM570.549 60.9983L582.629 68.4691L570.549 60.9983ZM582.629 68.4691C583.18 68.8103 583.382 69.4604 583.105 70.0614C583.103 70.062 583.104 70.064 583.104 70.064L577.141 82.9474L577.139 82.9501L582.629 68.4691ZM582.629 68.4691L577.139 82.9501L582.629 68.4691ZM577.139 82.9501C576.963 83.3347 576.614 83.6347 576.172 83.7675C575.812 83.8755 575.444 83.8604 575.107 83.7151L577.139 82.9501Z" fill="white" stroke="#7510F7" stroke-width="3"/>
<path d="M523.732 87.8907L523.73 87.8913C523.18 87.5501 522.98 86.8995 523.254 86.2971C523.256 86.2964 523.256 86.2964 523.256 86.2964L529.216 73.4164C529.218 73.4157 529.218 73.4157 529.218 73.4157C529.561 72.6782 530.49 72.3141 531.258 72.6414C531.965 72.9425 532.232 73.6828 531.932 74.3313L531.93 74.3319L527.632 83.6258L526.435 86.2159L528.863 87.7172L537.576 93.1016L537.579 93.1051C538.176 93.4728 538.369 94.2333 537.953 94.8736C537.74 95.1844 537.427 95.4039 537.077 95.5089C536.637 95.6411 536.179 95.5859 535.805 95.3573C535.805 95.3573 535.805 95.3573 535.805 95.3552L523.732 87.8907Z" fill="white" stroke="#7510F7" stroke-width="3"/>
<path d="M550.543 58.0819C550.505 57.4388 551.048 56.6637 551.998 56.5802C552.877 56.5223 553.453 57.1407 553.492 57.7702C553.493 57.7723 553.493 57.7723 553.493 57.7723L555.824 98.283L555.826 98.2871C555.865 98.941 555.333 99.7062 554.374 99.7834C553.493 99.844 552.915 99.2241 552.875 98.5925L552.875 98.5905L550.543 58.0819Z" stroke="#7510F7" stroke-width="3"/>
<path d="M170.983 127.406H93.44V240.738H170.983V127.406Z" fill="#7510F7" stroke="black"/>
<path d="M167.169 122H97.567C93.946 122 91 125.297 91 129.349V236.652C91 240.703 93.946 244.001 97.567 244.001H167.169C170.789 244.001 173.735 240.703 173.735 236.652V129.349C173.735 125.296 170.789 122 167.169 122ZM132.368 126.226C132.911 126.226 133.353 126.72 133.353 127.328C133.353 127.936 132.911 128.429 132.368 128.429C131.824 128.429 131.383 127.935 131.383 127.327C131.383 126.719 131.824 126.226 132.368 126.226ZM132.368 239.956C131.28 239.956 130.398 238.97 130.398 237.751C130.398 236.533 131.28 235.545 132.368 235.545C133.456 235.545 134.338 236.533 134.338 237.751C134.338 238.97 133.456 239.956 132.368 239.956ZM168.483 233.158H96.253V132.839H168.483V233.158Z" fill="white"/>
<path d="M601.664 94.2492H640.331H714.083L764.384 94.0003C777.131 93.9373 787.498 104.253 787.498 117V222.756H789.557C795.079 222.756 799.557 227.233 799.557 232.756V234.18C799.557 239.703 795.08 244.18 789.557 244.18H577C571.477 244.18 567 239.703 567 234.18V232.203C567 226.68 571.477 222.203 577 222.203H578.664V117.249C578.664 104.546 588.961 94.2492 601.664 94.2492Z" fill="white"/>
<path d="M786.507 222.586V223.586H787.507H792.999C795.884 223.586 798.093 225.736 798.093 228.211V238.35C798.093 240.825 795.884 242.975 792.999 242.975H573.468C570.583 242.975 568.374 240.825 568.374 238.35V228.211C568.374 225.736 570.583 223.586 573.468 223.586H578.96H579.96V222.586V108.747C579.96 101.377 586.479 95.2492 594.662 95.2492H771.804C779.987 95.2492 786.507 101.377 786.507 108.747V222.586ZM779.783 223.586H780.783V222.586V108.747C780.783 104.057 776.679 100.379 771.801 100.379H594.662C589.788 100.379 585.684 104.057 585.684 108.747V222.586V223.586H586.684H666.316L666.984 225.31L666.986 225.315C667.349 226.239 668.327 227.151 669.716 227.151H700.612C702.002 227.151 702.98 226.239 703.343 225.315L703.345 225.31L704.012 223.586H779.783ZM791.369 237.845H792.369V236.845V229.716V228.716H791.369H787.507H708.302H707.826L707.526 229.084C705.929 231.044 703.382 232.281 700.612 232.281H669.716C666.946 232.281 664.399 231.044 662.802 229.084L662.502 228.716H662.027H578.96H575.098H574.098V229.716V236.845V237.845H575.098H791.369Z" stroke="#7510F7" stroke-width="2"/>
<path d="M776.921 104.943V103.943H775.921H595.546C592.232 103.943 589.546 106.63 589.546 109.943V219.021V220.021H590.546H775.921H776.921V219.021V104.943ZM767.197 210.891H599.269V113.073H767.197V210.891Z" stroke="#7510F7" stroke-width="2"/>
<path d="M832.661 60.3529H691C681.612 60.3529 674 67.964 674 77.3528V152.326C674 161.163 681.164 168.326 690 168.326H835.661C844.497 168.326 851.661 161.163 851.661 152.326V79.3529C851.661 68.8594 843.154 60.3529 832.661 60.3529Z" fill="white"/>
<path d="M686.992 72.1156C687.684 72.1156 688.366 71.8923 688.854 71.5017C689.346 71.1138 689.627 70.5724 689.627 70.0227C689.627 69.4729 689.346 68.9316 688.854 68.5437C688.366 68.153 687.687 67.9298 686.992 67.9298C686.296 67.9298 685.618 68.153 685.129 68.5437C684.637 68.9316 684.356 69.4729 684.356 70.0227C684.356 70.5724 684.637 71.1138 685.129 71.5017C685.618 71.8923 686.299 72.1156 686.992 72.1156Z" fill="#7510F7"/>
<path d="M695.425 72.1156C696.121 72.1156 696.799 71.8923 697.288 71.5017C697.78 71.1138 698.061 70.5724 698.061 70.0227C698.061 69.4729 697.78 68.9316 697.288 68.5437C696.799 68.153 696.118 67.9298 695.425 67.9298C694.733 67.9298 694.051 68.153 693.563 68.5437C693.071 68.9316 692.79 69.4729 692.79 70.0227C692.79 70.5724 693.071 71.1138 693.563 71.5017C694.051 71.8923 694.733 72.1156 695.425 72.1156Z" fill="#7510F7"/>
<path d="M703.859 72.1156C704.551 72.1156 705.233 71.8923 705.721 71.5017C706.213 71.1138 706.494 70.5724 706.494 70.0227C706.494 69.4729 706.213 68.9316 705.721 68.5437C705.233 68.153 704.551 67.9298 703.859 67.9298C703.167 67.9298 702.485 68.153 701.996 68.5437C701.504 68.9316 701.223 69.4729 701.223 70.0227C701.223 70.5724 701.504 71.1138 701.996 71.5017C702.485 71.8923 703.167 72.1156 703.859 72.1156Z" fill="#7510F7"/>
<path d="M821.93 71.1156H715.104C713.973 71.1156 713.468 70.4236 713.468 70.0227C713.468 69.6218 713.973 68.9298 715.104 68.9298H821.93C823.06 68.9298 823.565 69.6218 823.565 70.0227C823.565 70.4236 823.06 71.1156 821.93 71.1156Z" stroke="#7510F7" stroke-width="2"/>
<path d="M838.797 71.1156H833.175C832.044 71.1156 831.539 70.4236 831.539 70.0227C831.539 69.6218 832.044 68.9298 833.175 68.9298H838.797C839.928 68.9298 840.433 69.6218 840.433 70.0227C840.433 70.4236 839.928 71.1156 838.797 71.1156Z" stroke="#7510F7" stroke-width="2"/>
<path d="M768.693 97.9514H769.693V96.9514V96.8119C769.693 93.9509 772.722 91.2541 776.95 91.2541H827.552C831.781 91.2541 834.81 93.9509 834.81 96.8119V101.277C834.81 104.138 831.781 106.835 827.552 106.835H776.95C772.722 106.835 769.693 104.138 769.693 101.277V101.137V100.137H768.693H765.706C763.734 100.137 761.719 101.446 761.719 103.509V121.509V122.509H762.719H768.693H769.693V121.509V121.369C769.693 118.508 772.722 115.811 776.95 115.811H827.552C831.781 115.811 834.81 118.508 834.81 121.369V125.834C834.81 128.695 831.781 131.392 827.552 131.392H776.95C772.722 131.392 769.693 128.695 769.693 125.834V125.694V124.694H768.693H762.719H761.719V125.694V143.693C761.719 145.756 763.734 147.065 765.706 147.065H768.693H769.693V146.065V145.926C769.693 143.065 772.722 140.368 776.95 140.368H827.552C831.781 140.368 834.81 143.065 834.81 145.926V150.391C834.81 153.252 831.781 155.948 827.552 155.948H776.95C772.722 155.948 769.693 153.252 769.693 150.391V150.251V149.251H768.693H765.706C761.477 149.251 758.448 146.554 758.448 143.693V125.694V124.694H757.448H751.474H750.474V125.694V132.531C750.474 135.392 747.444 138.089 743.216 138.089H698.236C694.008 138.089 690.979 135.392 690.979 132.531V114.672C690.979 111.811 694.008 109.114 698.236 109.114H743.216C747.444 109.114 750.474 111.811 750.474 114.672V121.509V122.509H751.474H757.448H758.448V121.509V103.509C758.448 100.648 761.477 97.9514 765.706 97.9514H768.693ZM743.216 135.903C745.188 135.903 747.203 134.594 747.203 132.531V114.672C747.203 112.609 745.188 111.3 743.216 111.3H698.236C696.264 111.3 694.25 112.609 694.25 114.672V132.531C694.25 134.594 696.264 135.903 698.236 135.903H743.216ZM776.95 142.554C774.978 142.554 772.964 143.863 772.964 145.926V150.391C772.964 152.454 774.978 153.763 776.95 153.763H827.552C829.524 153.763 831.539 152.454 831.539 150.391V145.926C831.539 143.863 829.524 142.554 827.552 142.554H776.95ZM776.95 117.997C774.978 117.997 772.964 119.306 772.964 121.369V125.834C772.964 127.897 774.978 129.206 776.95 129.206H827.552C829.524 129.206 831.539 127.897 831.539 125.834V121.369C831.539 119.306 829.524 117.997 827.552 117.997H776.95ZM827.552 104.649C829.524 104.649 831.539 103.34 831.539 101.277V96.8119C831.539 94.749 829.524 93.4399 827.552 93.4399H776.95C774.978 93.4399 772.964 94.749 772.964 96.8119V101.277C772.964 103.34 774.978 104.649 776.95 104.649H827.552Z" stroke="#7510F7" stroke-width="2"/>
<path d="M847.407 77.8595H848.407V76.8595V70.0227C848.407 65.498 843.869 62.1858 838.797 62.1858H686.992C681.919 62.1858 677.382 65.498 677.382 70.0227V76.8595V77.8595H678.382H847.407ZM678.382 80.0453H677.382V81.0453V159.32C677.382 163.845 681.919 167.157 686.992 167.157H838.797C843.869 167.157 848.407 163.845 848.407 159.32V81.0453V80.0453H847.407H678.382ZM686.992 60H838.797C846.126 60 851.678 64.6998 851.678 70.0227V159.32C851.678 164.643 846.126 169.343 838.797 169.343H686.992C679.663 169.343 674.111 164.643 674.111 159.32V70.0227C674.111 64.6998 679.663 60 686.992 60Z" stroke="#7510F7" stroke-width="2"/>
<path d="M38.16 164.08H8.15698C3.73798 164.08 0.156982 167.662 0.156982 172.08V230.799C0.156982 237.978 5.97698 243.799 13.157 243.799H38.16C40.921 243.799 43.16 241.56 43.16 238.799V169.08C43.16 166.319 40.921 164.08 38.16 164.08Z" fill="white"/>
<path d="M36.203 163H8.735C3.919 163 0 166.963 0 171.833V236.366C0 241.234 3.919 245.198 8.735 245.198H36.202C41.019 245.198 44.939 241.234 44.939 236.366V171.833C44.94 166.963 41.02 163 36.203 163ZM42.052 236.366C42.052 239.612 39.429 242.255 36.203 242.255H8.735C5.511 242.255 2.888 239.612 2.888 236.366V171.833H2.88901C2.88901 168.586 5.513 165.945 8.737 165.945H36.203C39.427 165.945 42.052 168.586 42.052 171.833C42.053 171.833 42.053 236.366 42.052 236.366ZM39.082 171.65H5.86099C5.46199 171.65 5.13901 171.979 5.13901 172.385V229.576C5.13901 229.982 5.46199 230.313 5.86099 230.313H39.082C39.481 230.313 39.805 229.983 39.805 229.576V172.385C39.804 171.979 39.481 171.65 39.082 171.65ZM38.36 228.839H6.58099V173.121H38.359C38.359 173.121 38.359 228.839 38.36 228.839ZM22.471 231.539C20.038 231.539 18.057 233.557 18.057 236.037C18.057 238.518 20.038 240.536 22.471 240.536C24.905 240.536 26.883 238.517 26.883 236.037C26.883 233.557 24.905 231.539 22.471 231.539ZM22.471 239.063C20.833 239.063 19.501 237.706 19.501 236.037C19.501 234.369 20.833 233.01 22.471 233.01C24.108 233.01 25.44 234.369 25.44 236.037C25.44 237.706 24.108 239.063 22.471 239.063ZM17.694 168.758C17.694 168.458 17.981 168.216 18.336 168.216H26.603C26.957 168.216 27.244 168.458 27.244 168.758C27.244 169.058 26.959 169.301 26.604 169.301H18.338C17.984 169.301 17.695 169.058 17.694 168.758Z" fill="#7510F7"/>
</svg>
