<svg width="689" height="244" viewBox="0 0 689 244" fill="none" xmlns="http://www.w3.org/2000/svg">
<g id="Group 1">
<g id="mac">
<g id="Group">
<path id="Vector" d="M482.933 19.16V20.66H482.934V192.416C482.934 202.085 474.653 210.075 464.321 210.075H354.474H352.308L353.07 212.103L361.089 233.443L361.455 234.415H362.493H378.007C380.674 234.415 382.522 236.297 382.522 238.25C382.522 240.204 380.674 242.085 378.007 242.085H358.158H307.031H287.182C284.515 242.085 282.667 240.204 282.667 238.25C282.667 236.297 284.515 234.415 287.182 234.415H302.695H303.734L304.1 233.443L312.119 212.103L312.881 210.075H310.715H200.868C190.536 210.075 182.255 202.085 182.255 192.416V19.16C182.255 9.49126 190.536 1.4995 200.867 1.5H200.867H464.321C474.652 1.5 482.933 9.49135 482.933 19.16ZM472.404 148.212H473.904V146.712V19.16C473.904 13.7204 469.675 9.16995 464.321 9.16995H200.868C195.514 9.16995 191.285 13.7205 191.285 19.16V146.712V148.212H192.785H472.404ZM349.812 234.415H351.978L351.216 232.388L343.196 211.048L342.831 210.075H341.792H323.396H322.357L321.992 211.048L313.971 232.388L313.209 234.415H315.376H349.812ZM473.903 192.415V190.915H473.903V157.381V155.881H472.403H192.784H191.284V157.381V192.415C191.284 197.855 195.514 202.405 200.867 202.405H319.06H346.127H464.321C469.675 202.405 473.903 197.854 473.903 192.415Z" stroke="#7510F7" stroke-width="3"/>
<path id="Vector_2" d="M348.52 178.867C348.52 186.483 341.492 192.879 332.594 192.879C323.697 192.879 316.668 186.483 316.668 178.867C316.668 171.25 323.697 164.854 332.594 164.854C341.492 164.854 348.52 171.25 348.52 178.867ZM338.491 178.867C338.491 175.81 335.73 173.524 332.594 173.524C329.458 173.524 326.698 175.81 326.698 178.867C326.698 181.923 329.458 184.209 332.594 184.209C335.731 184.209 338.491 181.923 338.491 178.867Z" stroke="#7510F7" stroke-width="2"/>
</g>
</g>
<g id="code-sign">
<circle id="Ellipse 1" cx="333" cy="84" r="57.5" fill="white" stroke="#7510F7" stroke-width="3"/>
<g id="code-sign_2">
<path id="Vector_3" d="M359.05 83.9971L358.168 84.9922L351.259 92.7863C351.259 92.7863 351.259 92.7863 351.259 92.7863C350.102 94.0917 350.249 96.043 351.612 97.177L359.05 83.9971ZM359.05 83.9971L358.168 83.002M359.05 83.9971L358.168 83.002M358.168 83.002L351.252 75.2017L351.251 75.2M358.168 83.002L351.251 75.2M351.251 75.2C350.097 73.9027 350.242 71.9471 351.605 70.8122C353.008 69.6541 355.11 69.8242 356.287 71.1526L356.287 71.1529M351.251 75.2L356.287 71.1529M356.287 71.1529L365.875 81.9696L365.875 81.9699M356.287 71.1529L365.875 81.9699M365.875 81.9699C366.911 83.1375 366.913 84.8424 365.874 86.019C365.874 86.0194 365.874 86.0198 365.873 86.0201L356.287 96.8351L356.286 96.8362M365.875 81.9699L356.286 96.8362M356.286 96.8362C355.643 97.5637 354.719 97.9495 353.773 97.9495C352.998 97.9495 352.237 97.6954 351.613 97.1774L356.286 96.8362Z" fill="white" stroke="#7510F7" stroke-width="3"/>
<path id="Vector_4" d="M300.119 86.0185L300.119 86.0181C299.083 84.8505 299.08 83.1454 300.12 81.9687C300.12 81.9684 300.12 81.9682 300.12 81.9679L309.705 71.1547C309.705 71.1544 309.705 71.1542 309.705 71.1539C310.894 69.8186 312.996 69.6531 314.387 70.8104L314.387 70.8107C315.751 71.9446 315.899 73.8963 314.741 75.2018L314.741 75.2022L307.832 83.0025L306.95 83.9976L307.832 84.9922L314.748 92.7926L314.749 92.7942C315.902 94.0905 315.759 96.0441 314.399 97.1794C313.769 97.6918 312.997 97.9495 312.227 97.9495C311.282 97.9495 310.357 97.5645 309.705 96.8335C309.705 96.8331 309.704 96.8328 309.704 96.8325L300.119 86.0185Z" fill="white" stroke="#7510F7" stroke-width="3"/>
<path id="Vector_5" d="M327.455 107.139C325.652 106.736 324.608 105.03 324.993 103.393C324.994 103.392 324.994 103.392 324.994 103.391L334.58 63.2188C334.972 61.5768 336.715 60.4682 338.548 60.8563C340.349 61.2606 341.392 62.9645 341.007 64.6011C341.006 64.6017 341.006 64.6022 341.006 64.6028L331.42 104.775L331.419 104.778C331.033 106.405 329.325 107.544 327.455 107.139Z" stroke="#7510F7" stroke-width="3"/>
</g>
</g>
<g id="ipad">
<path id="Vector 7" d="M225.99 127.199H148.447V240.531H225.99V127.199Z" fill="white" stroke="black"/>
<g id="Group_2">
<path id="Vector_6" d="M222.176 121.793H152.574C148.953 121.793 146.007 125.09 146.007 129.142V236.445C146.007 240.496 148.953 243.794 152.574 243.794H222.176C225.796 243.794 228.742 240.496 228.742 236.445V129.142C228.742 125.089 225.796 121.793 222.176 121.793ZM187.375 126.019C187.918 126.019 188.36 126.513 188.36 127.121C188.36 127.729 187.918 128.222 187.375 128.222C186.831 128.222 186.39 127.728 186.39 127.12C186.39 126.512 186.831 126.019 187.375 126.019ZM187.375 239.749C186.287 239.749 185.405 238.763 185.405 237.544C185.405 236.326 186.287 235.338 187.375 235.338C188.463 235.338 189.345 236.326 189.345 237.544C189.345 238.763 188.463 239.749 187.375 239.749ZM223.49 232.951H151.26V132.632H223.49V232.951Z" fill="#7510F7"/>
</g>
</g>
<g id="code-sign_3">
<circle id="Ellipse 1_2" cx="187" cy="184" r="25.5" fill="white" stroke="#7510F7" stroke-width="3"/>
<g id="code-sign_4">
<path id="Vector_7" d="M200.008 183.999L199.126 184.994L195.964 188.56C195.964 188.561 195.964 188.561 195.964 188.561C195.743 188.81 195.763 189.176 196.037 189.404L200.008 183.999ZM200.008 183.999L199.126 183.004M200.008 183.999L199.126 183.004M199.126 183.004L195.961 179.434L195.96 179.432M199.126 183.004L195.96 179.432M195.96 179.432C195.742 179.188 195.759 178.821 196.033 178.591C196.341 178.338 196.803 178.384 197.048 178.66L197.048 178.66M195.96 179.432L197.048 178.66M197.048 178.66L201.436 183.61L201.436 183.611M197.048 178.66L201.436 183.611M201.436 183.611C201.636 183.837 201.639 184.154 201.435 184.385C201.434 184.385 201.434 184.386 201.434 184.386L197.048 189.334L197.047 189.335M201.436 183.611L197.047 189.335M197.047 189.335C196.917 189.483 196.721 189.57 196.506 189.57C196.331 189.57 196.169 189.514 196.038 189.404L197.047 189.335Z" fill="white" stroke="#7510F7" stroke-width="3"/>
<path id="Vector_8" d="M172.562 184.384L172.561 184.384C172.361 184.158 172.359 183.841 172.562 183.609C172.563 183.609 172.563 183.609 172.563 183.609L176.947 178.662C176.948 178.662 176.948 178.662 176.948 178.662C177.2 178.379 177.663 178.341 177.962 178.59L177.962 178.59C178.237 178.819 178.257 179.185 178.036 179.434L178.035 179.434L174.873 183.004L173.992 183.999L174.874 184.994L178.039 188.563L178.04 188.565C178.257 188.809 178.241 189.174 177.97 189.404C177.833 189.514 177.664 189.57 177.494 189.57C177.28 189.57 177.083 189.484 176.947 189.332C176.947 189.332 176.947 189.332 176.947 189.331L172.562 184.384Z" fill="white" stroke="#7510F7" stroke-width="3"/>
<path id="Vector_9" d="M188.515 174.679C188.584 174.387 188.93 174.114 189.365 174.204C189.765 174.296 189.939 174.649 189.872 174.935C189.872 174.936 189.872 174.936 189.872 174.936L185.485 193.319L185.485 193.321C185.415 193.618 185.075 193.888 184.637 193.794C184.236 193.703 184.061 193.349 184.128 193.062C184.128 193.062 184.128 193.061 184.128 193.061L188.515 174.679Z" stroke="#7510F7" stroke-width="3"/>
</g>
</g>
<g id="macbook">
<path id="Vector 2" d="M428.017 93.6537L466.684 93.6537L540.436 93.6537L590.737 93.4048C603.484 93.3418 613.851 103.658 613.851 116.405V222.161H615.91C621.432 222.161 625.91 226.638 625.91 232.161V233.585C625.91 239.108 621.433 243.585 615.91 243.585H403.353C397.83 243.585 393.353 239.108 393.353 233.585V231.608C393.353 226.085 397.83 221.608 403.353 221.608H405.017V116.654C405.017 103.951 415.314 93.6537 428.017 93.6537Z" fill="white"/>
<g id="macbook_2">
<g id="Group_3">
<path id="Vector_10" d="M612.86 221.991V222.991H613.86H619.352C622.237 222.991 624.446 225.141 624.446 227.616V237.755C624.446 240.23 622.237 242.38 619.352 242.38H399.821C396.936 242.38 394.727 240.23 394.727 237.755V227.616C394.727 225.141 396.936 222.991 399.821 222.991H405.313H406.313V221.991V108.152C406.313 100.782 412.832 94.6537 421.015 94.6537H598.157C606.34 94.6537 612.86 100.782 612.86 108.152V221.991ZM606.136 222.991H607.136V221.991V108.152C607.136 103.462 603.032 99.7835 598.154 99.7835H421.015C416.141 99.7835 412.037 103.462 412.037 108.152V221.991V222.991H413.037H492.669L493.337 224.715L493.339 224.72C493.702 225.644 494.68 226.556 496.069 226.556H526.965C528.355 226.556 529.333 225.644 529.696 224.72L529.698 224.715L530.365 222.991H606.136ZM617.722 237.25H618.722V236.25V229.121V228.121H617.722H613.86H534.655H534.179L533.879 228.489C532.282 230.449 529.735 231.686 526.965 231.686H496.069C493.299 231.686 490.752 230.449 489.155 228.489L488.855 228.121H488.38H405.313H401.451H400.451V229.121V236.25V237.25H401.451H617.722Z" stroke="#7510F7" stroke-width="2"/>
<path id="Vector_11" d="M603.274 104.348V103.348H602.274H421.899C418.585 103.348 415.899 106.035 415.899 109.348V218.426V219.426H416.899H602.274H603.274V218.426V104.348ZM593.55 210.296H425.622V112.478H593.55V210.296Z" stroke="#7510F7" stroke-width="2"/>
</g>
</g>
</g>
<g id="web-window">
<path id="Vector 5" d="M668.292 53.8643H526.631C517.243 53.8643 509.631 61.4754 509.631 70.8642V145.837C509.631 154.674 516.795 161.837 525.631 161.837H671.292C680.128 161.837 687.292 154.674 687.292 145.837V72.8643C687.292 62.3708 678.785 53.8643 668.292 53.8643Z" fill="white"/>
<g id="Group_4">
<path id="Vector_12" d="M522.623 65.627C523.315 65.627 523.997 65.4037 524.485 65.0131C524.977 64.6252 525.258 64.0838 525.258 63.5341C525.258 62.9843 524.977 62.443 524.485 62.0551C523.997 61.6644 523.318 61.4412 522.623 61.4412C521.927 61.4412 521.249 61.6644 520.76 62.0551C520.268 62.443 519.987 62.9843 519.987 63.5341C519.987 64.0838 520.268 64.6252 520.76 65.0131C521.249 65.4037 521.93 65.627 522.623 65.627Z" fill="#7510F7"/>
<path id="Vector_13" d="M531.056 65.627C531.752 65.627 532.43 65.4037 532.919 65.0131C533.411 64.6252 533.692 64.0838 533.692 63.5341C533.692 62.9843 533.411 62.443 532.919 62.0551C532.43 61.6644 531.749 61.4412 531.056 61.4412C530.364 61.4412 529.682 61.6644 529.194 62.0551C528.702 62.443 528.421 62.9843 528.421 63.5341C528.421 64.0838 528.702 64.6252 529.194 65.0131C529.682 65.4037 530.364 65.627 531.056 65.627Z" fill="#7510F7"/>
<path id="Vector_14" d="M539.49 65.627C540.182 65.627 540.864 65.4037 541.352 65.0131C541.844 64.6252 542.125 64.0838 542.125 63.5341C542.125 62.9843 541.844 62.443 541.352 62.0551C540.864 61.6644 540.182 61.4412 539.49 61.4412C538.798 61.4412 538.116 61.6644 537.627 62.0551C537.135 62.443 536.854 62.9843 536.854 63.5341C536.854 64.0838 537.135 64.6252 537.627 65.0131C538.116 65.4037 538.798 65.627 539.49 65.627Z" fill="#7510F7"/>
<path id="Vector_15" d="M657.561 64.627H550.735C549.604 64.627 549.099 63.935 549.099 63.5341C549.099 63.1332 549.604 62.4412 550.735 62.4412H657.561C658.691 62.4412 659.196 63.1332 659.196 63.5341C659.196 63.935 658.691 64.627 657.561 64.627Z" stroke="#7510F7" stroke-width="2"/>
<path id="Vector_16" d="M674.428 64.627H668.806C667.675 64.627 667.17 63.935 667.17 63.5341C667.17 63.1332 667.675 62.4412 668.806 62.4412H674.428C675.559 62.4412 676.064 63.1332 676.064 63.5341C676.064 63.935 675.559 64.627 674.428 64.627Z" stroke="#7510F7" stroke-width="2"/>
<path id="Vector_17" d="M604.324 91.4628H605.324V90.4628V90.3233C605.324 87.4623 608.353 84.7655 612.581 84.7655H663.183C667.412 84.7655 670.441 87.4623 670.441 90.3233V94.7882C670.441 97.6492 667.412 100.346 663.183 100.346H612.581C608.353 100.346 605.324 97.6492 605.324 94.7882V94.6486V93.6486H604.324H601.337C599.365 93.6486 597.35 94.9577 597.35 97.0206V115.02V116.02H598.35H604.324H605.324V115.02V114.88C605.324 112.019 608.353 109.322 612.581 109.322H663.183C667.412 109.322 670.441 112.019 670.441 114.88V119.345C670.441 122.206 667.412 124.903 663.183 124.903H612.581C608.353 124.903 605.324 122.206 605.324 119.345V119.205V118.205H604.324H598.35H597.35V119.205V137.204C597.35 139.267 599.365 140.576 601.337 140.576H604.324H605.324V139.576V139.437C605.324 136.576 608.353 133.879 612.581 133.879H663.183C667.412 133.879 670.441 136.576 670.441 139.437V143.902C670.441 146.763 667.412 149.459 663.183 149.459H612.581C608.353 149.459 605.324 146.763 605.324 143.902V143.762V142.762H604.324H601.337C597.108 142.762 594.079 140.065 594.079 137.204V119.205V118.205H593.079H587.105H586.105V119.205V126.042C586.105 128.903 583.075 131.6 578.847 131.6H533.867C529.639 131.6 526.61 128.903 526.61 126.042V108.183C526.61 105.322 529.639 102.625 533.867 102.625H578.847C583.075 102.625 586.105 105.322 586.105 108.183V115.02V116.02H587.105H593.079H594.079V115.02V97.0206C594.079 94.1596 597.108 91.4628 601.337 91.4628H604.324ZM578.847 129.414C580.819 129.414 582.834 128.105 582.834 126.042V108.183C582.834 106.12 580.819 104.811 578.847 104.811H533.867C531.895 104.811 529.881 106.12 529.881 108.183V126.042C529.881 128.105 531.895 129.414 533.867 129.414H578.847ZM612.581 136.065C610.609 136.065 608.595 137.374 608.595 139.437V143.902C608.595 145.965 610.609 147.274 612.581 147.274H663.183C665.155 147.274 667.17 145.965 667.17 143.902V139.437C667.17 137.374 665.155 136.065 663.183 136.065H612.581ZM612.581 111.508C610.609 111.508 608.595 112.817 608.595 114.88V119.345C608.595 121.408 610.609 122.717 612.581 122.717H663.183C665.155 122.717 667.17 121.408 667.17 119.345V114.88C667.17 112.817 665.155 111.508 663.183 111.508H612.581ZM663.183 98.1601C665.155 98.1601 667.17 96.851 667.17 94.7882V90.3233C667.17 88.2604 665.155 86.9513 663.183 86.9513H612.581C610.609 86.9513 608.595 88.2604 608.595 90.3233V94.7882C608.595 96.851 610.609 98.1601 612.581 98.1601H663.183Z" stroke="#7510F7" stroke-width="2"/>
<path id="Vector_18" d="M683.038 71.3709H684.038V70.3709V63.5341C684.038 59.0094 679.5 55.6972 674.428 55.6972H522.623C517.55 55.6972 513.013 59.0094 513.013 63.5341V70.3709V71.3709H514.013H683.038ZM514.013 73.5567H513.013V74.5567V152.831C513.013 157.356 517.55 160.668 522.623 160.668H674.428C679.5 160.668 684.038 157.356 684.038 152.831V74.5567V73.5567H683.038H514.013ZM522.623 53.5114H674.428C681.757 53.5114 687.309 58.2112 687.309 63.5341V152.831C687.309 158.154 681.757 162.854 674.428 162.854H522.623C515.294 162.854 509.742 158.154 509.742 152.831V63.5341C509.742 58.2112 515.294 53.5114 522.623 53.5114Z" stroke="#7510F7" stroke-width="2"/>
</g>
</g>
<g id="iphone">
<path id="Vector 4" d="M236.16 163.08H206.157C201.738 163.08 198.157 166.662 198.157 171.08V229.799C198.157 236.978 203.977 242.799 211.157 242.799H236.16C238.921 242.799 241.16 240.56 241.16 237.799V168.08C241.16 165.319 238.921 163.08 236.16 163.08Z" fill="white"/>
<path id="Vector_19" d="M234.203 162H206.735C201.919 162 198 165.963 198 170.833V235.366C198 240.234 201.919 244.198 206.735 244.198H234.202C239.019 244.198 242.939 240.234 242.939 235.366V170.833C242.94 165.963 239.02 162 234.203 162ZM240.052 235.366C240.052 238.612 237.429 241.255 234.203 241.255H206.735C203.511 241.255 200.888 238.612 200.888 235.366V170.833H200.889C200.889 167.586 203.513 164.945 206.737 164.945H234.203C237.427 164.945 240.052 167.586 240.052 170.833C240.053 170.833 240.053 235.366 240.052 235.366ZM237.082 170.65H203.861C203.462 170.65 203.139 170.979 203.139 171.385V228.576C203.139 228.982 203.462 229.313 203.861 229.313H237.082C237.481 229.313 237.805 228.983 237.805 228.576V171.385C237.804 170.979 237.481 170.65 237.082 170.65ZM236.36 227.839H204.581V172.121H236.359C236.359 172.121 236.359 227.839 236.36 227.839ZM220.471 230.539C218.038 230.539 216.057 232.557 216.057 235.037C216.057 237.518 218.038 239.536 220.471 239.536C222.905 239.536 224.883 237.517 224.883 235.037C224.883 232.557 222.905 230.539 220.471 230.539ZM220.471 238.063C218.833 238.063 217.501 236.706 217.501 235.037C217.501 233.369 218.833 232.01 220.471 232.01C222.108 232.01 223.44 233.369 223.44 235.037C223.44 236.706 222.108 238.063 220.471 238.063ZM215.694 167.758C215.694 167.458 215.981 167.216 216.336 167.216H224.603C224.957 167.216 225.244 167.458 225.244 167.758C225.244 168.058 224.959 168.301 224.604 168.301H216.338C215.984 168.301 215.695 168.058 215.694 167.758Z" fill="#7510F7"/>
</g>
<g id="code-sign_5">
<circle id="Ellipse 1_3" cx="220.5" cy="202.5" r="11" fill="white" stroke="#7510F7" stroke-width="3"/>
<g id="code-sign_6">
<g id="Vector_20">
<mask id="path-27-inside-1" fill="white">
<path d="M224.901 205.773C224.667 205.773 224.433 205.696 224.24 205.536C223.815 205.183 223.765 204.563 224.131 204.151L225.594 202.499L224.129 200.847C223.764 200.436 223.814 199.815 224.239 199.461C224.667 199.108 225.307 199.156 225.672 199.567L227.703 201.859C228.029 202.227 228.029 202.769 227.703 203.138L225.672 205.43C225.471 205.657 225.187 205.773 224.901 205.773Z"/>
</mask>
<path d="M224.901 205.773C224.667 205.773 224.433 205.696 224.24 205.536C223.815 205.183 223.765 204.563 224.131 204.151L225.594 202.499L224.129 200.847C223.764 200.436 223.814 199.815 224.239 199.461C224.667 199.108 225.307 199.156 225.672 199.567L227.703 201.859C228.029 202.227 228.029 202.769 227.703 203.138L225.672 205.43C225.471 205.657 225.187 205.773 224.901 205.773Z" fill="white"/>
<path d="M224.24 205.536L222.322 207.843L222.323 207.844L224.24 205.536ZM224.131 204.151L221.886 202.161L221.885 202.161L224.131 204.151ZM225.594 202.499L227.839 204.489L229.604 202.499L227.839 200.509L225.594 202.499ZM224.129 200.847L226.374 198.857L226.371 198.853L224.129 200.847ZM224.239 199.461L222.328 197.149L222.321 197.155L224.239 199.461ZM225.672 199.567L223.426 201.557L223.427 201.557L225.672 199.567ZM227.703 201.859L225.458 203.849L225.458 203.85L227.703 201.859ZM227.703 203.138L229.948 205.128L229.951 205.125L227.703 203.138ZM225.672 205.43L223.427 203.44L223.425 203.442L225.672 205.43ZM224.901 202.773C225.328 202.773 225.782 202.917 226.157 203.229L222.323 207.844C223.083 208.475 224.005 208.773 224.901 208.773V202.773ZM226.158 203.229C227.02 203.946 227.147 205.27 226.376 206.141L221.885 202.161C220.383 203.856 220.61 206.419 222.322 207.843L226.158 203.229ZM226.375 206.141L227.839 204.489L223.349 200.509L221.886 202.161L226.375 206.141ZM227.839 200.509L226.374 198.857L221.884 202.837L223.35 204.49L227.839 200.509ZM226.371 198.853C227.149 199.728 227.017 201.053 226.157 201.768L222.321 197.155C220.611 198.576 220.378 201.143 221.887 202.84L226.371 198.853ZM226.15 201.774C225.345 202.439 224.146 202.369 223.426 201.557L227.917 197.578C226.469 195.943 223.988 195.777 222.328 197.149L226.15 201.774ZM223.427 201.557L225.458 203.849L229.948 199.869L227.917 197.577L223.427 201.557ZM225.458 203.85C224.776 203.08 224.78 201.915 225.455 201.152L229.951 205.125C231.278 203.623 231.283 201.374 229.947 199.868L225.458 203.85ZM225.458 201.149L223.427 203.44L227.917 207.42L229.948 205.128L225.458 201.149ZM223.425 203.442C223.829 202.985 224.382 202.773 224.901 202.773V208.773C225.991 208.773 227.113 208.328 227.919 207.418L223.425 203.442Z" fill="#7510F7" mask="url(#path-27-inside-1)"/>
</g>
<g id="Vector_21">
<mask id="path-29-inside-2" fill="white">
<path d="M216.099 205.773C215.813 205.773 215.529 205.657 215.327 205.43L213.296 203.138C212.969 202.77 212.969 202.228 213.296 201.859L215.327 199.567C215.693 199.156 216.333 199.106 216.76 199.461C217.185 199.815 217.235 200.434 216.869 200.847L215.406 202.499L216.871 204.152C217.236 204.563 217.186 205.184 216.761 205.537C216.569 205.695 216.333 205.773 216.099 205.773Z"/>
</mask>
<path d="M216.099 205.773C215.813 205.773 215.529 205.657 215.327 205.43L213.296 203.138C212.969 202.77 212.969 202.228 213.296 201.859L215.327 199.567C215.693 199.156 216.333 199.106 216.76 199.461C217.185 199.815 217.235 200.434 216.869 200.847L215.406 202.499L216.871 204.152C217.236 204.563 217.186 205.184 216.761 205.537C216.569 205.695 216.333 205.773 216.099 205.773Z" fill="white"/>
<path d="M215.327 205.43L213.082 207.42L213.087 207.425L215.327 205.43ZM213.296 203.138L215.541 201.149L215.54 201.148L213.296 203.138ZM213.296 201.859L211.051 199.869L211.048 199.872L213.296 201.859ZM215.327 199.567L213.085 197.574L213.082 197.577L215.327 199.567ZM216.76 199.461L214.841 201.768L214.842 201.768L216.76 199.461ZM216.869 200.847L214.624 198.857L214.624 198.858L216.869 200.847ZM215.406 202.499L213.16 200.51L211.397 202.5L213.161 204.49L215.406 202.499ZM216.871 204.152L214.626 206.142L214.629 206.145L216.871 204.152ZM216.761 205.537L218.66 207.86L218.669 207.852L218.679 207.844L216.761 205.537ZM216.099 202.773C216.62 202.773 217.168 202.986 217.567 203.435L213.087 207.425C213.89 208.327 215.007 208.773 216.099 208.773V202.773ZM217.572 203.44L215.541 201.149L211.051 205.128L213.082 207.42L217.572 203.44ZM215.54 201.148C216.223 201.918 216.218 203.082 215.544 203.846L211.048 199.872C209.721 201.374 209.716 203.623 211.051 205.129L215.54 201.148ZM215.541 203.849L217.572 201.557L213.082 197.577L211.051 199.869L215.541 203.849ZM217.569 201.561C216.859 202.359 215.659 202.448 214.841 201.768L218.678 197.155C217.008 195.765 214.526 195.953 213.085 197.574L217.569 201.561ZM214.842 201.768C213.98 201.052 213.853 199.727 214.624 198.857L219.115 202.837C220.617 201.141 220.39 198.578 218.678 197.155L214.842 201.768ZM214.624 198.858L213.16 200.51L217.651 204.489L219.115 202.836L214.624 198.858ZM213.161 204.49L214.626 206.142L219.116 202.162L217.65 200.509L213.161 204.49ZM214.629 206.145C213.851 205.271 213.984 203.946 214.843 203.231L218.679 207.844C220.389 206.422 220.622 203.856 219.113 202.159L214.629 206.145ZM214.863 203.215C215.225 202.918 215.666 202.773 216.099 202.773V208.773C217 208.773 217.912 208.471 218.66 207.86L214.863 203.215Z" fill="#7510F7" mask="url(#path-29-inside-2)"/>
</g>
<g id="Vector_22">
<mask id="path-31-inside-3" fill="white">
<path d="M219.257 207.713C218.71 207.591 218.37 207.063 218.494 206.535L220.526 198.023C220.652 197.496 221.197 197.17 221.743 197.286C222.29 197.408 222.63 197.936 222.506 198.463L220.474 206.975C220.351 207.495 219.816 207.834 219.257 207.713V207.713Z"/>
</mask>
<path d="M218.494 206.535L215.576 205.839L215.575 205.846L218.494 206.535ZM220.526 198.023L217.608 197.327L217.608 197.327L220.526 198.023ZM221.743 197.286L222.395 194.358L222.382 194.355L222.37 194.352L221.743 197.286ZM222.506 198.463L225.424 199.16L225.425 199.153L222.506 198.463ZM220.474 206.975L217.556 206.279L217.555 206.283L220.474 206.975ZM219.909 204.784C220.916 205.008 221.692 206.048 221.414 207.225L215.575 205.846C215.048 208.078 216.504 210.173 218.605 210.641L219.909 204.784ZM221.413 207.232L223.444 198.72L217.608 197.327L215.576 205.839L221.413 207.232ZM223.444 198.72C223.165 199.886 222.051 200.42 221.117 200.22L222.37 194.352C220.343 193.92 218.138 195.105 217.608 197.327L223.444 198.72ZM221.091 200.214C220.084 199.99 219.308 198.95 219.586 197.774L225.425 199.153C225.952 196.921 224.496 194.826 222.395 194.358L221.091 200.214ZM219.587 197.767L217.556 206.279L223.392 207.672L225.424 199.16L219.587 197.767ZM217.555 206.283C217.823 205.153 218.917 204.568 219.895 204.781L218.619 210.644C220.715 211.101 222.879 209.838 223.393 207.667L217.555 206.283Z" fill="#7510F7" mask="url(#path-31-inside-3)"/>
</g>
</g>
</g>
</g>
</svg>
