<svg width="70" height="70" viewBox="0 0 70 70" fill="none" xmlns="http://www.w3.org/2000/svg">
<g id="paint-palette 1">
<g id="Group">
<path id="Vector" d="M20.6445 57.5586C20.6445 55.1955 19.6388 53.064 18.0346 51.5658L18.0354 51.5545C18.1807 49.5466 18.2984 47.4299 18.3879 45.2458C22.5869 46.0369 25.5623 47.629 27.2467 49.9938C29.4186 53.0429 28.8401 56.624 28.6111 57.6488C27.8477 61.0656 29.871 64.5269 33.2985 65.1853C35.2796 65.5658 37.2565 65.7558 39.2204 65.7558C46.1055 65.7558 53.0104 63.4026 58.7104 58.6946C65.8826 52.7706 69.9975 44.1345 69.9999 35.0007C70.0048 17.6891 54.9485 3.56562 39.225 4.13014C30.6343 4.43871 22.9138 8.6707 17.5906 13.329C17.5226 12.6942 17.4513 12.0761 17.3768 11.4767C16.9863 8.33465 16.5251 5.84391 16.0058 4.07354C15.6484 2.85455 14.8112 0 12.4414 0C10.0717 0 9.23439 2.85455 8.87701 4.07354C8.35775 5.84391 7.8966 8.33465 7.506 11.4767C6.72123 17.7911 6.28906 26.1451 6.28906 35C6.28906 40.7851 6.48211 46.5095 6.84742 51.5543L6.84824 51.5658C5.24398 53.064 4.23828 55.1955 4.23828 57.5586V61.7969C4.23828 64.0202 2.29742 65.8984 0 65.8984V70H8.33984C15.1143 70 20.6445 64.3854 20.6445 57.5586V57.5586ZM39.3721 8.2291C52.5861 7.75496 65.9027 19.8189 65.8984 34.9995C65.8962 42.906 62.3243 50.3899 56.0986 55.5323C49.946 60.6141 41.9173 62.6642 34.0724 61.1574C32.9305 60.9381 32.3563 59.6967 32.6141 58.5432C33.0274 56.6932 33.6576 51.9244 30.5875 47.6142C28.1788 44.2325 24.1244 42.047 18.5213 41.1038C18.5689 39.095 18.5933 34.8471 18.5933 34.7706C19.3925 35.7018 20.4509 36.3721 21.6619 36.6965C24.946 37.5766 28.3209 35.6155 29.197 32.3462C30.075 29.0693 28.1233 25.6892 24.8466 24.8112C22.3856 24.1518 19.9288 25.0806 18.4692 26.8844C18.378 23.971 18.2376 21.1765 18.0517 18.5644C22.6923 13.6615 30.5382 8.54643 39.3721 8.2291V8.2291ZM21.2734 30.2229C21.5668 29.1281 22.6901 28.4793 23.7851 28.7727C24.8773 29.0654 25.528 30.1921 25.2353 31.2844C24.9426 32.3768 23.8153 33.0273 22.7235 32.7346C21.6288 32.4413 20.98 31.318 21.2734 30.2229V30.2229ZM11.3742 13.7323C11.7284 10.4314 12.1074 8.19396 12.4414 6.68801C12.7754 8.19396 13.1544 10.4314 13.5086 13.7323C14.1429 19.6428 14.4922 27.1958 14.4922 35C14.4922 35.685 14.4893 36.3688 14.4838 37.0508H10.399C10.3935 36.3688 10.3906 35.685 10.3906 35C10.3906 27.1958 10.7399 19.6428 11.3742 13.7323V13.7323ZM10.4651 41.151H14.4177C14.3474 44.0471 14.2278 46.8636 14.0617 49.5169C13.5376 49.4115 12.9959 49.3555 12.4414 49.3555C11.8869 49.3555 11.3452 49.4115 10.8212 49.5169C10.6552 46.8636 10.5355 44.0472 10.4651 41.151ZM8.33984 61.7969V57.5586C8.33984 55.297 10.1798 53.457 12.4414 53.457C14.703 53.457 16.543 55.297 16.543 57.5586C16.543 62.1571 12.863 65.8984 8.33984 65.8984H7.21109C7.94746 64.6624 8.33984 63.2579 8.33984 61.7969Z" fill="#794AF6"/>
<path id="Vector_2" d="M55.0529 27.7494C57.4573 25.3452 57.4578 21.4533 55.0529 19.0486C52.6543 16.6498 48.751 16.6497 46.3522 19.0486C43.9478 21.4528 43.9473 25.3446 46.3522 27.7494C48.7509 30.1481 52.6541 30.1482 55.0529 27.7494V27.7494ZM49.2524 21.9489C50.052 21.1494 51.3529 21.1493 52.1527 21.9489C52.9543 22.7505 52.9543 24.0476 52.1527 24.8491C51.3528 25.6488 50.052 25.6487 49.2524 24.8491C48.4509 24.0476 48.4508 22.7504 49.2524 21.9489Z" fill="#794AF6"/>
<path id="Vector_3" d="M36.4476 25.0955C39.7243 24.2175 41.6761 20.8373 40.7981 17.5606C39.9198 14.2838 36.5396 12.3322 33.263 13.2102C29.9863 14.0882 28.0346 17.4684 28.9126 20.7453C29.7927 24.0295 33.1628 25.9756 36.4476 25.0955V25.0955ZM34.3246 17.1719C35.4192 16.8786 36.5442 17.5323 36.8364 18.6219C37.1291 19.7142 36.4785 20.841 35.3862 21.1336C34.2915 21.4268 33.168 20.7785 32.8746 19.6835C32.5817 18.5913 33.2322 17.4646 34.3246 17.1719V17.1719Z" fill="#794AF6"/>
<path id="Vector_4" d="M37.405 52.4397C38.2819 55.7117 41.6586 57.6693 44.9403 56.79C48.217 55.912 50.1685 52.5317 49.2905 49.255C48.4105 45.9711 45.041 44.0244 41.7554 44.9046C38.4787 45.7826 36.527 49.1628 37.405 52.4397V52.4397ZM42.8172 48.8663C43.9139 48.5723 45.0361 49.2237 45.3287 50.3163C45.6214 51.4087 44.9709 52.5354 43.8787 52.8281C42.7863 53.1208 41.6597 52.4701 41.367 51.3781C41.0743 50.2857 41.7248 49.159 42.8172 48.8663Z" fill="#794AF6"/>
<path id="Vector_5" d="M49.006 37.654C48.128 40.9308 50.0797 44.3109 53.3564 45.1891C56.6382 46.0685 60.0106 44.1257 60.8914 40.8387C61.7713 37.5544 59.8258 34.1838 56.5411 33.3037C53.257 32.4233 49.8863 34.3692 49.006 37.654ZM56.9296 39.7771C56.6366 40.8717 55.5129 41.5207 54.418 41.2273C53.3258 40.9345 52.6753 39.8078 52.968 38.7155C53.2606 37.6229 54.3825 36.9715 55.4795 37.2654C56.5716 37.558 57.2223 38.6847 56.9296 39.7771Z" fill="#794AF6"/>
</g>
</g>
</svg>
