<svg width="70" height="70" viewBox="0 0 70 70" fill="none" xmlns="http://www.w3.org/2000/svg">
<g id="web-design 1">
<g id="Expand">
<path id="Vector" d="M13.125 10.9375H10.9375V13.125H13.125V10.9375Z" class="fill_text"/>
<path id="Vector_2" d="M17.5 10.9375H15.3125V13.125H17.5V10.9375Z" class="fill_text"/>
<path id="Vector_3" d="M21.875 10.9375H19.6875V13.125H21.875V10.9375Z" class="fill_text"/>
<path id="Vector_4" d="M63.4375 2.1875H41.5625C40.4022 2.1875 39.2894 2.64844 38.4689 3.46891C37.6484 4.28938 37.1875 5.40218 37.1875 6.5625H10.9375C9.77718 6.5625 8.66438 7.02344 7.84391 7.84391C7.02344 8.66438 6.5625 9.77718 6.5625 10.9375V59.0625C6.5625 60.2228 7.02344 61.3356 7.84391 62.1561C8.66438 62.9766 9.77718 63.4375 10.9375 63.4375H59.0625C60.2228 63.4375 61.3356 62.9766 62.1561 62.1561C62.9766 61.3356 63.4375 60.2228 63.4375 59.0625V21.875C64.5978 21.875 65.7106 21.4141 66.5311 20.5936C67.3516 19.7731 67.8125 18.6603 67.8125 17.5V6.5625C67.8125 5.40218 67.3516 4.28938 66.5311 3.46891C65.7106 2.64844 64.5978 2.1875 63.4375 2.1875ZM10.9375 8.75H37.1875V15.3125H8.75V10.9375C8.75 10.3573 8.98047 9.80094 9.3907 9.3907C9.80094 8.98047 10.3573 8.75 10.9375 8.75V8.75ZM61.25 59.0625C61.25 59.6427 61.0195 60.1991 60.6093 60.6093C60.1991 61.0195 59.6427 61.25 59.0625 61.25H10.9375C10.3573 61.25 9.80094 61.0195 9.3907 60.6093C8.98047 60.1991 8.75 59.6427 8.75 59.0625V17.5H37.1875C37.1875 18.6603 37.6484 19.7731 38.4689 20.5936C39.2894 21.4141 40.4022 21.875 41.5625 21.875H42.6562V25.1562C42.6562 25.3543 42.7099 25.5486 42.8117 25.7184C42.9135 25.8883 43.0594 26.0274 43.234 26.1208C43.4086 26.2142 43.6053 26.2585 43.8031 26.2489C44.0008 26.2393 44.1923 26.1761 44.357 26.0663L50.6406 21.875H61.25V59.0625ZM65.625 17.5C65.625 18.0802 65.3945 18.6366 64.9843 19.0468C64.5741 19.457 64.0177 19.6875 63.4375 19.6875H50.3125C50.0965 19.6878 49.8854 19.7517 49.7055 19.8712L44.8438 23.1131V20.7812C44.8438 20.4912 44.7285 20.213 44.5234 20.0079C44.3183 19.8027 44.0401 19.6875 43.75 19.6875H41.5625C40.9823 19.6875 40.4259 19.457 40.0157 19.0468C39.6055 18.6366 39.375 18.0802 39.375 17.5V6.5625C39.375 5.98234 39.6055 5.42594 40.0157 5.0157C40.4259 4.60547 40.9823 4.375 41.5625 4.375H63.4375C64.0177 4.375 64.5741 4.60547 64.9843 5.0157C65.3945 5.42594 65.625 5.98234 65.625 6.5625V17.5Z" class="fill_text"/>
<path id="Vector_5" d="M44.0705 6.88297L41.883 9.07047C41.6779 9.27557 41.5627 9.55372 41.5627 9.84375C41.5627 10.1338 41.6779 10.4119 41.883 10.617L44.0705 12.8045L45.617 11.258L44.2028 9.84375L45.617 8.42953L44.0705 6.88297Z" class="fill_text"/>
<path id="Vector_6" d="M52.1795 12.8045L54.367 10.617C54.5721 10.4119 54.6873 10.1338 54.6873 9.84375C54.6873 9.55372 54.5721 9.27557 54.367 9.07047L52.1795 6.88297L50.633 8.42953L52.0472 9.84375L50.633 11.258L52.1795 12.8045Z" class="fill_text"/>
<path id="Vector_7" d="M48.183 6.21596L45.9933 12.7782L48.0672 13.4703L50.257 6.90801L48.183 6.21596Z" class="fill_text"/>
<path id="Vector_8" d="M59.0625 8.75H56.875V10.9375H59.0625V8.75Z" class="fill_text"/>
<path id="Vector_9" d="M43.75 15.3125H41.5625V17.5H43.75V15.3125Z" class="fill_text"/>
<path id="Vector_10" d="M63.4375 15.3125H45.9375V17.5H63.4375V15.3125Z" class="fill_text"/>
<path id="Vector_11" d="M63.4375 8.75H61.25V10.9375H63.4375V8.75Z" class="fill_text"/>
<path id="Vector_12" d="M14.2188 22.9688H36.0938V20.7812H13.125C12.8349 20.7812 12.5567 20.8965 12.3516 21.1016C12.1465 21.3067 12.0312 21.5849 12.0312 21.875V33.9062C12.0312 34.1963 12.1465 34.4745 12.3516 34.6796C12.5567 34.8848 12.8349 35 13.125 35H56.875C57.1651 35 57.4433 34.8848 57.6484 34.6796C57.8535 34.4745 57.9688 34.1963 57.9688 33.9062V24.0625H55.7812V32.8125H14.2188V22.9688Z" class="fill_text"/>
<path id="Vector_13" d="M24.0625 38.2812H13.125C12.8349 38.2812 12.5567 38.3965 12.3516 38.6016C12.1465 38.8067 12.0312 39.0849 12.0312 39.375V43.75C12.0312 44.0401 12.1465 44.3183 12.3516 44.5234C12.5567 44.7285 12.8349 44.8438 13.125 44.8438H24.0625C24.3526 44.8438 24.6308 44.7285 24.8359 44.5234C25.041 44.3183 25.1562 44.0401 25.1562 43.75V39.375C25.1562 39.0849 25.041 38.8067 24.8359 38.6016C24.6308 38.3965 24.3526 38.2812 24.0625 38.2812ZM22.9688 42.6562H14.2188V40.4688H22.9688V42.6562Z" class="fill_text"/>
<path id="Vector_14" d="M25.1562 47.0312H12.0312V49.2188H25.1562V47.0312Z" class="fill_text"/>
<path id="Vector_15" d="M25.1562 51.4062H12.0312V53.5938H25.1562V51.4062Z" class="fill_text"/>
<path id="Vector_16" d="M21.875 55.7812H12.0312V57.9688H21.875V55.7812Z" class="fill_text"/>
<path id="Vector_17" d="M40.4688 38.2812H29.5312C29.2412 38.2812 28.963 38.3965 28.7579 38.6016C28.5527 38.8067 28.4375 39.0849 28.4375 39.375V43.75C28.4375 44.0401 28.5527 44.3183 28.7579 44.5234C28.963 44.7285 29.2412 44.8438 29.5312 44.8438H40.4688C40.7588 44.8438 41.037 44.7285 41.2421 44.5234C41.4473 44.3183 41.5625 44.0401 41.5625 43.75V39.375C41.5625 39.0849 41.4473 38.8067 41.2421 38.6016C41.037 38.3965 40.7588 38.2812 40.4688 38.2812ZM39.375 42.6562H30.625V40.4688H39.375V42.6562Z" class="fill_text"/>
<path id="Vector_18" d="M41.5625 47.0312H28.4375V49.2188H41.5625V47.0312Z" class="fill_text"/>
<path id="Vector_19" d="M41.5625 51.4062H28.4375V53.5938H41.5625V51.4062Z" class="fill_text"/>
<path id="Vector_20" d="M38.2812 55.7812H28.4375V57.9688H38.2812V55.7812Z" class="fill_text"/>
<path id="Vector_21" d="M56.875 38.2812H45.9375C45.6474 38.2812 45.3692 38.3965 45.1641 38.6016C44.959 38.8067 44.8438 39.0849 44.8438 39.375V43.75C44.8438 44.0401 44.959 44.3183 45.1641 44.5234C45.3692 44.7285 45.6474 44.8438 45.9375 44.8438H56.875C57.1651 44.8438 57.4433 44.7285 57.6484 44.5234C57.8535 44.3183 57.9688 44.0401 57.9688 43.75V39.375C57.9688 39.0849 57.8535 38.8067 57.6484 38.6016C57.4433 38.3965 57.1651 38.2812 56.875 38.2812ZM55.7812 42.6562H47.0312V40.4688H55.7812V42.6562Z" class="fill_text"/>
<path id="Vector_22" d="M57.9688 47.0312H44.8438V49.2188H57.9688V47.0312Z" class="fill_text"/>
<path id="Vector_23" d="M57.9688 51.4062H44.8438V53.5938H57.9688V51.4062Z" class="fill_text"/>
<path id="Vector_24" d="M54.6875 55.7812H44.8438V57.9688H54.6875V55.7812Z" class="fill_text"/>
<path id="Vector_25" d="M59.0625 65.625H28.4375V67.8125H59.0625V65.625Z" class="fill_text"/>
<path id="Vector_26" d="M26.25 65.625H24.0625V67.8125H26.25V65.625Z" class="fill_text"/>
<path id="Vector_27" d="M4.375 17.5H2.1875V45.9375H4.375V17.5Z" class="fill_text"/>
</g>
</g>
</svg>
