<svg width="168" height="102" viewBox="0 0 168 102" fill="none" xmlns="http://www.w3.org/2000/svg">
<g id="TMD-Logo">
<ellipse id="Ellipse 1" cx="84" cy="77" rx="84" ry="10" fill="#4D7FCA" fill-opacity="0.37"/>
<path id="T" d="M51.556 27.264V36.58H38.908V75H27.28V36.58H14.632V27.264H51.556Z" fill="#0048B4"/>
<path id="M" d="M105.276 27.264V75H93.648V46.372L82.972 75H73.588L62.844 46.304V75H51.216V27.264H64.952L78.348 60.312L91.608 27.264H105.276Z" fill="#0048B4" fill-opacity="0.85"/>
<path id="D" d="M123.1 27.264C128.132 27.264 132.529 28.2613 136.292 30.256C140.055 32.2507 142.956 35.0613 144.996 38.688C147.081 42.2693 148.124 46.4173 148.124 51.132C148.124 55.8013 147.081 59.9493 144.996 63.576C142.956 67.2027 140.032 70.0133 136.224 72.008C132.461 74.0027 128.087 75 123.1 75H105.216V27.264H123.1ZM122.352 64.936C126.749 64.936 130.172 63.7347 132.62 61.332C135.068 58.9293 136.292 55.5293 136.292 51.132C136.292 46.7347 135.068 43.312 132.62 40.864C130.172 38.416 126.749 37.192 122.352 37.192H116.844V64.936H122.352Z" fill="#0048B4" fill-opacity="0.7"/>
</g>
</svg>
