<svg width="313" height="285" viewBox="0 0 313 285" fill="none" xmlns="http://www.w3.org/2000/svg">
<path d="M257.008 169.885L220.399 156.26L235.351 123.826C243.598 105.937 263.437 96.2807 279.591 102.293L283.252 103.655C289.338 105.92 296.734 102.32 299.842 95.5799L311.056 71.2547C314.163 64.5146 311.766 57.2697 305.68 55.0046L302.019 53.6421C261.566 38.5867 212.073 62.6776 191.42 107.477L135.349 229.103C129.158 242.532 133.974 257.09 146.101 261.603L204.676 283.403C216.803 287.916 231.664 280.682 237.856 267.252L267.76 202.385C273.951 188.956 269.135 174.398 257.008 169.885ZM125.215 120.835L88.6055 107.211L103.558 74.7769C111.805 56.8877 131.643 47.2312 147.797 53.2431L151.458 54.6056C157.545 56.8707 164.941 53.2706 168.048 46.5304L179.262 22.2052C182.369 15.4651 179.973 8.22024 173.887 5.95511L170.226 4.59262C129.772 -10.4629 80.2792 13.6281 59.6265 58.4271L3.55591 180.053C-2.63523 193.483 2.18054 208.04 14.3074 212.553L72.8823 234.353C85.0091 238.867 99.8709 231.633 106.062 218.203L135.966 153.336C142.157 139.906 137.342 125.349 125.215 120.835Z" fill="#8B97C6" fill-opacity="0.25"/>
</svg>
