<svg height="512" viewBox="0 0 512 512" width="512" xmlns="http://www.w3.org/2000/svg"><g id="Fill_out_line" data-name="Fill out line"><rect fill="#37a0c5" height="320" rx="32" width="192" x="296" y="24"/><path d="m328 320a8.00917 8.00917 0 0 1 -8-8v-256a8.00917 8.00917 0 0 1 8-8h16l24 24h48l24-24h16a8.00917 8.00917 0 0 1 8 8v256a8.00917 8.00917 0 0 1 -8 8z" fill="#8ccee9"/><path d="m384 152-8 8v4.6863a27.31368 27.31368 0 0 0 8 19.3137 27.31368 27.31368 0 0 0 19.31369 8h4.68631l8-8 24 24-16 16h-11.71576a68.28421 68.28421 0 0 1 -48.28424-20 68.28421 68.28421 0 0 1 -20-48.28422v-11.71578l16-16z" fill="#90c937"/><path d="m224 288h-200v-160h176v136z" fill="#f0de9c"/><g fill="#f0c033"><path d="m112 152h32v16h-32z"/><path d="m80 152h16v16h-16z"/><path d="m96 184h32v16h-32z"/><path d="m48 184h32v16h-32z"/><path d="m112 216h64v16h-64z"/><path d="m48 216h48v16h-48z"/><path d="m96 248h56v16h-56z"/><path d="m48 248h32v16h-32z"/><path d="m160 152h16v16h-16z"/><path d="m144 184h32v16h-32z"/></g><path d="m376 392.98v14.35a42.14134 42.14134 0 0 1 -3.41992 16.64l-11.13008 25.97a116.86688 116.86688 0 0 0 -9.17 38.06h-184.28v-80h32l28.55005-34.26a85.50358 85.50358 0 0 1 27.44995-21.74h88a42.2401 42.2401 0 0 1 32 40.98z" fill="#8ccee9"/><path d="m326.333 361.667-22.333 22.333h-16l-8-16 24-24z" fill="#e64042"/><path d="m284.785 342.405-28.785 9.595 16 24 32-32 24 32 24-24-16-16v8z" fill="#c6d6e2"/><path d="m160 488h-100a12 12 0 0 1 -12-12 12 12 0 0 1 12-12h100z" fill="#a8b4be"/><rect fill="#c6d6e2" height="24" rx="12" width="136" x="144" y="464"/><path d="m192.19449 443.70567-28.51268-74.133a14.93352 14.93352 0 0 0 -13.93813-9.57267h-104a14.93351 14.93351 0 0 0 -13.93813 20.29433l28.51268 74.133a14.93352 14.93352 0 0 0 13.93809 9.57267h104a14.93351 14.93351 0 0 0 13.93817-20.29433z" fill="#c6d6e2"/><path d="m164.31819 454.4273-28.51268-74.133a14.93351 14.93351 0 0 1 13.93813-20.2943 14.93352 14.93352 0 0 1 13.93813 9.5727l28.51268 74.133a14.93351 14.93351 0 0 1 -13.93809 20.2943 14.93352 14.93352 0 0 1 -13.93817-9.5727z" fill="#a8b4be"/><path d="m352 288v12.69a27.3187 27.3187 0 0 1 -8 19.31 27.31736 27.31736 0 0 0 -8 19.31v4.69h-40a40.00174 40.00174 0 0 1 -40-40v-32l45.40991-32.43 10.59009-7.57 24 33.6z" fill="#f6d0b1"/><path d="m304 384v40h-32l6.4-16 3.2-8 6.4-16z" fill="#e64042"/><path d="m351.18994 312h-15.18994v-16a38.63337 38.63337 0 0 0 -11.31006-27.31l-12.68994-12.69a77.26569 77.26569 0 0 0 -54.62988 22.63l-.87012.87a56.004 56.004 0 1 1 94.68994 32.5z" fill="#2f4054"/><path d="m336 296 4.68629-4.68629a11.31372 11.31372 0 0 1 8-3.31371 11.31369 11.31369 0 0 1 11.31371 11.3137 28.87838 28.87838 0 0 1 -1.48193 9.13209l-4.91152 14.73454a7.04865 7.04865 0 0 1 -6.68691 4.81967 7.0486 7.0486 0 0 1 -4.98414-2.0645l-13.9355-13.9355z" fill="#f6d0b1"/><path d="m248 424v40h-56a40.0017 40.0017 0 0 1 40-40z" fill="#f6d0b1"/><path d="m344 440-24 24h-72v-40h48l24-24z" fill="#8ccee9"/><path d="m359.729 349.96088a7.95219 7.95219 0 0 0 -2.07177-3.61762l-10.90332-10.90326a22.05987 22.05987 0 0 0 16.04882-14.54938l3.30372-9.91308a36.75822 36.75822 0 0 0 1.66064-7.56763 64.00182 64.00182 0 1 0 -119.76709-31.40991v28.686l-21.65723 21.65722a7.99983 7.99983 0 0 0 -1.498 9.23438l8 16 14.31054-7.15528-5.42089-10.84277 9.16015-9.16a48.17471 48.17471 0 0 0 14.07373 20.1582l-11.49853 3.83288a8.02572 8.02572 0 0 0 -1.04785.43409 92.95359 92.95359 0 0 0 -30.01954 23.77588l-26.14945 31.3794h-12.29712l-12.80737-33.29883a23.07015 23.07015 0 0 0 -21.4043-14.70117h-104.00098a22.93321 22.93321 0 0 0 -21.40429 31.1665l28.51269 74.13233c.00513.01312.01148.02545.0166.03857a19.98662 19.98662 0 0 0 7.13184 38.6626h208a20.00446 20.00446 0 0 0 19.59692-24h32.40308a8.00076 8.00076 0 0 0 5.65723-2.34326l16-16-11.31446-11.31348-13.65625 13.65674h-60.68652v-24h40a8.00076 8.00076 0 0 0 5.65723-2.34326l24-24-11.31446-11.31348-2.34277 2.34284v-9.3721l8.27734-8.27728 1.32227 1.76312a8.00031 8.00031 0 0 0 12.05762.85694l17.92041-17.92035a34.19262 34.19262 0 0 1 16.42236 29.24843v14.34375a34.04789 34.04789 0 0 1 -2.76953 13.49024l-11.12988 25.97021a124.246 124.246 0 0 0 -10.10059 49.21094h16a108.31638 108.31638 0 0 1 8.80762-42.9082l11.12988-25.97022a49.97392 49.97392 0 0 0 4.0625-19.79297v-14.34375a50.17 50.17 0 0 0 -24.271-43.02398zm-47.729-125.96088a47.92421 47.92421 0 0 1 46.7373 58.853 19.26611 19.26611 0 0 0 -17.085-1.538 46.42564 46.42564 0 0 0 -11.30859-18.28515l-7.02971-7.02985 10.34327-10.34326-11.31446-11.31348-13.73925 13.73938a84.52206 84.52206 0 0 0 -43.56645 13.99536 48.07847 48.07847 0 0 1 46.96289-38.078zm-48 59.35779a68.712 68.712 0 0 1 44.75977-19.28406l10.2705 10.27a30.42483 30.42483 0 0 1 8.96973 21.65627 8.0001 8.0001 0 0 0 13.65723 5.65674l4.68652-4.687a3.31387 3.31387 0 0 1 5.65625 2.34374 20.81124 20.81124 0 0 1 -1.07227 6.60254l-3.30468 9.915a6.09657 6.09657 0 0 1 -10.09473 2.38331l-3.87109-3.8711-11.31446 11.31348 3.8711 3.87109a22.32927 22.32927 0 0 0 2.60791 2.20441 35.2854 35.2854 0 0 0 -.66748 4.26779h-32.1543a32.03635 32.03635 0 0 1 -32-32zm21.78979 67.53839-12.54663 12.54669-4.7771-7.16559 16.6272-5.54229c.23194.05413.46338.11041.69653.16119zm-85.78979 65.10382a7.99975 7.99975 0 0 0 6.14551-2.87842l28.54785-34.25781a77.00305 77.00305 0 0 1 18.7561-16.2677l11.89429 17.84143a7.99743 7.99743 0 0 0 5.86816 3.52344q.39552.03954.78907.03906a8 8 0 0 0 5.65625-2.34326l.15136-.15137 1.42945 2.85895-12.6543 31.63568h-34.58374a47.88581 47.88581 0 0 0 -35.73706 15.99811l-6.15332-15.99811zm-50.25586-48a6.97452 6.97452 0 0 1 6.4707 4.44482l28.5127 74.13282a6.93339 6.93339 0 0 1 -6.4707 9.42236h-.001a6.97452 6.97452 0 0 1 -6.4707-4.44482l-28.5127-74.13282a6.93339 6.93339 0 0 1 6.47072-9.42236zm-110.47168 9.42236a6.93339 6.93339 0 0 1 6.4707-9.42236h82.14478a22.91927 22.91927 0 0 0 .45093 15.1665l28.01318 72.8335h-82.09619a6.97452 6.97452 0 0 1 -6.4707-4.44482zm16.72754 98.57764a4.00427 4.00427 0 0 1 4-4h76.40308a20.04872 20.04872 0 0 0 0 8h-76.40308a4.00427 4.00427 0 0 1 -4-4zm212-4a4 4 0 0 1 0 8h-112a4 4 0 0 1 0-8zm-28-16h-38.9873a32.05723 32.05723 0 0 1 30.9873-24h8zm52.68652-40h-8.87036l9.6001-24h2.58374v20.68646zm8-40h-7.74218l-3.21021-6.42017 13.40064-13.40063 7.44506 9.92712zm28.17871-12.1792-8.86523-11.8208h16a7.96129 7.96129 0 0 0 3.751-.93555l.93554.93555z"/><circle cx="280" cy="288" r="8"/><circle cx="312" cy="288" r="8"/><path d="m282.34277 317.65674a19.31373 19.31373 0 0 0 27.31446 0 8.00018 8.00018 0 0 0 -11.31446-11.31348 3.31247 3.31247 0 0 1 -4.68554 0 8.00018 8.00018 0 0 0 -11.31446 11.31348z"/><path d="m456 16h-128a40.04552 40.04552 0 0 0 -40 40v136h16v-136a24.02718 24.02718 0 0 1 24-24h128a24.02718 24.02718 0 0 1 24 24v256a24.02718 24.02718 0 0 1 -24 24h-72v16h72a40.04552 40.04552 0 0 0 40-40v-256a40.04552 40.04552 0 0 0 -40-40z"/><path d="m349.65723 42.34326a8.00076 8.00076 0 0 0 -5.65723-2.34326h-16a16.01833 16.01833 0 0 0 -16 16v136h16v-136h12.68652l21.65625 21.65674a8.00076 8.00076 0 0 0 5.65723 2.34326h48a8.00076 8.00076 0 0 0 5.65723-2.34326l21.65625-21.65674h12.68652v256h-72v16h72a16.01833 16.01833 0 0 0 16-16v-256a16.01833 16.01833 0 0 0 -16-16h-16a8.00076 8.00076 0 0 0 -5.65723 2.34326l-21.65625 21.65674h-41.373z"/><path d="m376 40h16v16h-16z"/><circle cx="408" cy="48" r="8"/><path d="m389.65723 157.65674a8 8 0 0 0 0-11.31348l-24-24a8.00122 8.00122 0 0 0 -11.31446 0l-16 16a8.00035 8.00035 0 0 0 -2.34277 5.65674v11.71582a76.28382 76.28382 0 0 0 76.28418 76.28418h11.71582a8.00076 8.00076 0 0 0 5.65723-2.34326l16-16a8 8 0 0 0 0-11.31348l-24-24a8.00122 8.00122 0 0 0 -11.31446 0l-5.65625 5.65674h-1.373a19.31415 19.31415 0 0 1 -19.31352-19.31348v-1.373zm13.65625 42.34326h4.68652a8.00076 8.00076 0 0 0 5.65723-2.34326l2.34277-2.34326 12.68652 12.68652-8 8h-8.40234a60.28472 60.28472 0 0 1 -60.28418-60.28418v-8.40234l8-8 12.68652 12.68652-2.34375 2.34326a8.00035 8.00035 0 0 0 -2.34277 5.65674v4.68652a35.31326 35.31326 0 0 0 35.31348 35.31348z"/><path d="m224 296a8.00038 8.00038 0 0 0 5.65723-13.65674l-21.65723-21.65726v-132.686a8.00008 8.00008 0 0 0 -8-8h-176a8.00008 8.00008 0 0 0 -8 8v160a8.00008 8.00008 0 0 0 8 8zm-192-160h160v128a8.00035 8.00035 0 0 0 2.34277 5.65674l10.34375 10.34326h-172.68652z"/><path d="m112 152h32v16h-32z"/><path d="m80 152h16v16h-16z"/><path d="m96 184h32v16h-32z"/><path d="m48 184h32v16h-32z"/><path d="m112 216h64v16h-64z"/><path d="m48 216h48v16h-48z"/><path d="m96 248h56v16h-56z"/><path d="m48 248h32v16h-32z"/><path d="m160 152h16v16h-16z"/><path d="m144 184h32v16h-32z"/></g></svg>